<svg xmlns="http://www.w3.org/2000/svg" width="270" height="178" viewBox="0 0 270 178">
  <path id="bg" d="M243.279,150.821c4.264-.768,17.271,6.005,26.721,12.226-15.52-18.71-19.114-30.14-19.114-38.141-1.173-16.236-.14-70.679-.745-83.927.317-11.824,5.865-22.27,18.192-40.98-7.392,7.57-19.933,16.78-24.021,17.4-3.584.543-.214-6.333,4.832-14.119-5.363,4.806-12.364,11.861-18.611,13.829-11.228,3.57-180.863,2.876-191.421-.946-5.474-1.967-11.405-8.4-16.377-13.426,3.8,6.952,8.454,15.506,6.219,17.511C25.864,23,12.792,17.183,0,9.865c7.607,5.678,19.859,19.8,19.784,34.168.289,14.231-.922,72.609-.391,88.48,0,5.6-10.66,16.883-17.727,24.162,9.7-5.64,23.127-11.646,25.259-7.064,1.6,3.42-4.758,14.812-13.146,28.388,14.142-18.71,30.482-25.727,36.273-25.727,9.133-.253,159.011-.253,170.389.215,10.977,0,20.781,9.575,27.605,14.6C242.926,159.159,239.416,151.514,243.279,150.821Z" fill="#fff"/>
</svg>
