<?xml version="1.0" encoding="utf-8"?>
<!-- Generator: Adobe Illustrator 25.0.1, SVG Export Plug-In . SVG Version: 6.00 Build 0)  -->
<svg version="1.1" id="Layer_1" xmlns="http://www.w3.org/2000/svg" xmlns:xlink="http://www.w3.org/1999/xlink" x="0px" y="0px"
	 viewBox="0 0 600 120" style="enable-background:new 0 0 600 120;" xml:space="preserve">
<style type="text/css">
	.st0{fill:#FFFFFF;}
	.st1{fill:#F6EB16;}
	.st2{font-family:'YuGothicUI-Bold';}
	.st3{font-size:21px;}
	.st4{letter-spacing:5;}
</style>
<path class="st0" d="M409.12,48.01c0.55-0.08,1.5-0.25,2.39-0.4C410.81,47.71,410.09,47.84,409.12,48.01z"/>
<path class="st0" d="M411.53,47.61L411.53,47.61z"/>
<path class="st0" d="M584.95,16.23l-0.74,0.13L584.95,16.23z"/>
<path class="st0" d="M454.87,40.07l0.13-0.06c2.12-0.37,0.62-0.07,2.58-0.42c0.76-0.18,3.26-0.57,3.94-0.72c0,0,0.94-0.16,0.89-0.13
	c0.29-0.08,1-0.18,1.59-0.3l-0.33,0.05l1.39-0.26c0.54-0.08,0.68-0.09,0.09,0c3.63-0.63,21-3.68,25-4.38
	c-0.5,0.07-1.71,0.3-2.17,0.35c1-0.2,1.52-0.26,2-0.36s2.27-0.39,3.06-0.49l0.3-0.07l0.51-0.08c4.54-0.82,1-0.19,5.07-0.9
	c2.33-0.41,3.43-0.64,4.73-0.86c-0.19,0-0.71,0.12-0.11,0c0.11,0,1.61-0.29,1.9-0.33c0.6-0.1,2.51-0.44,1.86-0.35
	c0.33,0,2-0.34,1-0.15l1.55-0.27l-0.74,0.12c1.95-0.35,3-0.52,4.28-0.76l-0.72,0.11c1.16-0.2,2.13-0.38,2.59-0.43l-1.19,0.22
	c1.93-0.34,3.1-0.55,4.7-0.85l-0.57,0.1c2-0.39,12.77-2.3,14.65-2.66l-0.87,0.13l1.62-0.31c-0.19,0-0.77,0.21-0.93,0.23l24.81-4.38
	c1.3-0.22,0.23,0,0.22,0c1.58-0.29,0.68-0.14,2-0.38c0.37-0.06-0.07,0-0.28,0.07c0.59-0.11,1.14-0.19,1.18-0.21
	c-0.24,0.05-0.49,0.07-0.74,0.08l1.72-0.3h-0.07c0.38-0.07,1-0.22,2.67-0.51l8.85-1.56c0,0-0.65,0.13-1.26,0.25
	c0.39-0.07,1-0.18,1.33-0.23c-0.69,0.1,1.21-0.23,0.67-0.14c2.1-0.41,4.83-0.85,6.69-1.21c0.15-0.06,3.87-1.3,3.87-1.34l1.33-0.23
	c-0.15,0-1.29,0.21-1.89,0.32h-0.1c-1.39,0.25-0.33,0.05-1.69,0.29c-0.07,0,1.18-0.23,2.27-0.43c-1,0.17-2,0.33-2.37,0.43
	c-0.93,0.15,0.1,0-1,0.14c-0.8,0.15-1.84,0.35-2.76,0.5l0,0c-2.23,0.37-3.4,0.63-5.44,1l0.22-0.05l-3.43,0.6
	c0.37-0.06,0.69-0.11-0.09,0c-1.49,0.26-2.51,0.45-3.6,0.62l-1,0.21l-30.97,5.51h0.2c-7.94,1.41-24.26,4.28-32.48,5.76
	c-1.27,0.2-3,0.52-4.35,0.75c0.74-0.13,0.49-0.07-0.09,0c-4,0.71-0.27,0.06-4.35,0.79c-4.7,0.84-22.71,4-26.89,4.72
	c-2.24,0.42-5,0.9-7.23,1.3h0.22c-2.36,0.42-15.73,2.75-18.47,3.25l0.37-0.06c-2.39,0.43-2.07,0.35-3.95,0.67
	c0.25,0-1.8,0.36-2.58,0.5l0,0l-5.79,1.06h0.07c-1.62,0.3-4.67,0.83-5.84,1c-2.67,0.47-6.79,1.16-10.35,1.81l-2.32,0.36l-0.33,0.07
	c0,0-3.62,1.2,1.11,0.49h-0.07l0.93-0.16c1.12-0.19,1.64-0.3,1.56-0.27l-1.53,0.27c1.13-0.2,0.34-0.05-0.08,0l1.29-0.22l-0.33,0.05
	c0.6-0.11,1.44-0.27,2.17-0.39c1.15-0.21,0.08,0,1.42-0.23c7.08-1.23,13.95-2.42,21.1-3.69c0.16,0,0,0-0.24,0.05l6-1.07l0.85-0.13
	C443.53,42.01,454.69,40.07,454.87,40.07z"/>
<path class="st0" d="M408.43,44.07c0.55-0.08,1.49-0.24,2.39-0.4L408.43,44.07z"/>
<path class="st0" d="M410.81,43.67L410.81,43.67z"/>
<path class="st0" d="M584.26,12.29l-0.74,0.13L584.26,12.29z"/>
<path class="st0" d="M454.17,36.07l0.13-0.05c2.13-0.38,0.63-0.08,2.59-0.43c0.76-0.18,3.26-0.57,3.93-0.72c0,0,0.95-0.16,0.89-0.13
	c0.29-0.08,1-0.18,1.59-0.3l-0.32,0.05l1.38-0.25c0.55-0.09,0.68-0.1,0.09,0c3.63-0.63,21.05-3.68,25-4.38
	c-0.51,0.07-1.71,0.3-2.18,0.35c1-0.19,1.53-0.26,2-0.36s2.27-0.39,3.06-0.49l0.29-0.07l0.52-0.08c4.54-0.82,1-0.19,5.06-0.9
	c2.33-0.41,3.43-0.64,4.73-0.85c-0.19,0-0.71,0.11-0.1,0c0.1,0,1.6-0.29,1.9-0.33c0.59-0.1,2.51-0.44,1.85-0.35
	c0.33,0,2-0.34,1-0.15l1.55-0.27l-0.74,0.12c1.94-0.35,3-0.51,4.27-0.76l-0.72,0.11c1.16-0.2,2.14-0.38,2.6-0.43l-1.19,0.22
	l4.7-0.85l-0.58,0.1c2-0.39,12.77-2.3,14.66-2.66l-0.88,0.13l1.56-0.27c-0.2,0-0.78,0.2-0.94,0.22l24.81-4.38
	c1.3-0.21,0.24,0,0.23,0c1.57-0.29,0.67-0.14,2-0.38c0.36-0.06-0.08,0-0.28,0.07c0.59-0.1,1.13-0.19,1.18-0.21
	c-0.25,0.05-0.5,0.07-0.75,0.08l1.73-0.3h-0.08c0.39-0.07,1-0.22,2.67-0.51l8.85-1.55l-1.25,0.24c0.39-0.07,1-0.18,1.33-0.23
	c-0.7,0.1,1.21-0.23,0.66-0.14c2.1-0.41,4.84-0.85,6.69-1.21c0.16-0.06,3.88-1.3,3.87-1.34l1.33-0.23c-0.15,0-1.28,0.21-1.89,0.32
	h-0.1c-1.38,0.26-0.33,0.05-1.68,0.29c-0.08,0,1.17-0.23,2.27-0.43c-1,0.17-2,0.34-2.38,0.43c-0.93,0.15,0.1,0-1,0.15
	c-0.79,0.14-1.84,0.34-2.76,0.49l0,0c-2.23,0.37-3.4,0.63-5.44,1l0.22-0.05l-3.44,0.6c0.37-0.06,0.7-0.1-0.08,0
	c-1.5,0.26-2.51,0.45-3.61,0.63l-1,0.2l-30.92,5.48h0.2c-8,1.41-24.27,4.28-32.48,5.76c-1.28,0.2-3,0.52-4.35,0.75
	c0.73-0.13,0.48-0.07-0.09,0c-4,0.71-0.27,0.06-4.36,0.79c-4.7,0.85-22.7,4-26.88,4.72c-2.24,0.42-5,0.9-7.24,1.3h0.22
	c-2.36,0.42-15.72,2.75-18.46,3.25l0.37-0.06c-2.39,0.43-2.07,0.35-4,0.67c0.25,0-1.79,0.37-2.57,0.51l0,0l-5.71,1.07h0.08
	c-1.62,0.3-4.68,0.83-5.84,1c-2.67,0.47-6.79,1.16-10.36,1.81l-2.31,0.37l-0.34,0.06c0,0-3.61,1.2,1.12,0.49h-0.07l0.93-0.17
	c1.12-0.19,1.63-0.3,1.56-0.27l-1.53,0.27c1.12-0.2,0.34-0.05-0.09,0l1.3-0.23l-0.34,0.05c0.6-0.11,1.44-0.27,2.18-0.39
	c1.15-0.2,0.08,0,1.42-0.23c7.08-1.23,13.94-2.42,21.1-3.69c0.16,0,0,0-0.24,0.05l6-1.07l0.86-0.13L454.17,36.07z"/>
<path class="st0" d="M183.15,87.07l-0.74,0.13L183.15,87.07z"/>
<path class="st0" d="M53.07,110.87l0.13-0.06c2.12-0.37,0.62-0.07,2.58-0.43c0.76-0.17,3.26-0.57,3.94-0.71c0,0,0.94-0.16,0.88-0.14
	c0.29-0.07,1-0.18,1.6-0.29l-0.33,0.05l1.38-0.26c0.55-0.09,0.68-0.1,0.1,0c3.62-0.63,21-3.68,24.95-4.38
	c-0.51,0.07-1.71,0.29-2.17,0.35c1-0.2,1.52-0.26,2-0.36s2.27-0.39,3.06-0.49l0.29-0.07L92,104c4.54-0.82,1-0.19,5.06-0.9
	c2.34-0.41,3.44-0.64,4.74-0.86c-0.2,0-0.71,0.11-0.11,0c0.11,0,1.61-0.3,1.9-0.33c0.59-0.1,2.51-0.44,1.86-0.35
	c0.33-0.05,2-0.34,1-0.15l1.55-0.28l-0.74,0.13c2-0.35,3-0.52,4.28-0.76l-0.73,0.11c1.17-0.2,2.14-0.38,2.6-0.43l-1.19,0.22
	l4.7-0.85l-0.57,0.1c2-0.39,12.77-2.3,14.65-2.67l-0.87,0.14l1.62-0.31c-0.19,0-0.77,0.21-0.94,0.23c3.49-0.62,21.6-3.83,24.81-4.38
	c1.3-0.22,0.24,0,0.23,0c1.58-0.29,0.68-0.14,2-0.38c0.37-0.06-0.07,0-0.28,0.07l1.18-0.21c-0.25,0.05-0.5,0.07-0.75,0.08l1.73-0.31
	h-0.07c0.38-0.06,1-0.21,2.66-0.5l8.85-1.56c0,0-0.64,0.13-1.25,0.24l1.33-0.22c-0.69,0.1,1.21-0.23,0.66-0.14
	c2.11-0.41,4.84-0.86,6.69-1.21c0.16-0.06,3.88-1.3,3.88-1.34c0.57-0.11,1.15-0.21,1.33-0.23c-0.16,0-1.29,0.21-1.89,0.32h-0.1
	c-1.39,0.25-0.33,0-1.69,0.29c-0.07,0,1.17-0.23,2.27-0.43c-1,0.17-2,0.33-2.37,0.42c-0.93,0.16,0.1,0-1,0.15
	c-0.79,0.15-1.84,0.35-2.75,0.5l0,0c-2.23,0.37-3.4,0.62-5.44,1h0.22l-3.44,0.6c0.38-0.06,0.7-0.11-0.08,0
	c-1.49,0.25-2.51,0.45-3.6,0.62l-1.05,0.21l-30.92,5.47h0.2c-7.95,1.41-24.27,4.28-32.48,5.76c-1.27,0.2-3,0.52-4.35,0.74
	c0.74-0.12,0.49-0.06-0.09,0c-4,0.71-0.27,0.06-4.35,0.79c-4.7,0.84-22.71,4-26.89,4.72c-2.24,0.42-5,0.9-7.24,1.3l0.22-0.05
	c-2.35,0.43-15.72,2.76-18.46,3.26l0.37-0.07c-2.39,0.44-2.07,0.36-4,0.68c0.26,0-1.79,0.36-2.57,0.5l0,0l-5.79,1.06h0.07
	c-1.62,0.3-4.67,0.83-5.84,1c-2.67,0.46-6.79,1.16-10.35,1.81l-2.32,0.36l-0.29,0.11c0,0-3.62,1.2,1.11,0.48H8.85l0.93-0.16
	c1.12-0.19,1.64-0.3,1.56-0.27l-1.53,0.3c1.12-0.2,0.34-0.05-0.09,0l1.3-0.22l-0.34,0.05l2.18-0.4c1.15-0.2,0.08,0,1.42-0.22
	c7.08-1.23,13.94-2.42,21.1-3.69c0.16,0,0,0-0.24,0.05l6-1.07l0.86-0.13C41.73,112.86,52.89,110.89,53.07,110.87z"/>
<path class="st0" d="M182.45,83.14l-0.73,0.13L182.45,83.14z"/>
<path class="st0" d="M52.37,106.93l0.13-0.06c2.12-0.37,0.63-0.07,2.59-0.43c0.76-0.17,3.26-0.57,3.93-0.71c0,0,0.95-0.16,0.89-0.14
	c0.29-0.07,1-0.18,1.59-0.29h-0.33l1.39-0.26c0.54-0.08,0.68-0.1,0.09,0c3.63-0.63,21-3.68,25-4.38c-0.5,0.07-1.71,0.3-2.17,0.35
	c1-0.2,1.52-0.26,2-0.36s2.27-0.39,3.06-0.49l0.29-0.07l0.52-0.08c4.53-0.82,1-0.19,5.06-0.9c2.33-0.41,3.43-0.64,4.73-0.86
	c-0.19,0-0.71,0.11-0.1,0c0.1,0,1.6-0.29,1.9-0.33c0.59-0.1,2.51-0.44,1.85-0.35c0.33-0.05,2-0.34,1-0.15l1.55-0.28l-0.75,0.13
	c2-0.35,3-0.52,4.28-0.76l-0.72,0.11c1.16-0.2,2.14-0.38,2.6-0.43l-1.2,0.22c1.94-0.34,3.1-0.55,4.71-0.85l-0.58,0.1
	c2-0.39,12.77-2.3,14.66-2.67l-0.88,0.14l1.62-0.31c-0.19,0-0.77,0.21-0.93,0.23c3.48-0.62,21.59-3.83,24.81-4.38
	c1.3-0.22,0.24,0,0.22,0c1.58-0.29,0.68-0.14,2-0.38c0.37-0.06-0.07,0-0.27,0.07l1.17-0.21c-0.24,0.05-0.49,0.07-0.74,0.08l1.73-0.3
	h-0.08c0.39-0.07,1-0.22,2.67-0.51l8.85-1.56c0,0-0.65,0.13-1.25,0.25c0.38-0.07,1-0.18,1.33-0.23c-0.7,0.1,1.2-0.23,0.66-0.14
	c2.1-0.41,4.83-0.86,6.69-1.21c0.16-0.06,3.88-1.3,3.87-1.34c0.58-0.11,1.15-0.21,1.33-0.23c-0.15,0-1.29,0.21-1.89,0.32h-0.1
	c-1.39,0.25-0.33,0.05-1.68,0.29c-0.08,0,1.17-0.23,2.27-0.43c-1,0.17-2,0.33-2.38,0.42c-0.93,0.16,0.1,0-1,0.15
	c-0.8,0.15-1.84,0.35-2.76,0.5l0,0c-2.23,0.37-3.41,0.63-5.44,1l0.21-0.05l-3.43,0.6c0.37-0.06,0.69-0.11-0.08,0
	c-1.5,0.25-2.51,0.45-3.61,0.62l-1,0.21l-30.93,5.47h0.21c-8,1.41-24.27,4.28-32.48,5.76c-1.28,0.2-3,0.52-4.36,0.74
	c0.74-0.12,0.49-0.06-0.08,0c-4,0.71-0.27,0.06-4.36,0.79c-4.7,0.84-22.71,4-26.88,4.72c-2.24,0.42-5,0.9-7.24,1.3h0.22
	c-2.36,0.42-15.72,2.75-18.47,3.25l0.37-0.07c-2.39,0.44-2.06,0.36-4,0.68c0.25,0-1.79,0.36-2.58,0.5l0,0l-5.79,1.06h0.08
	c-1.62,0.3-4.68,0.83-5.84,1c-2.67,0.46-6.79,1.16-10.36,1.81l-2.29,0.47l-0.34,0.07c0,0-3.61,1.2,1.12,0.48H8.18l0.93-0.16
	c1.12-0.19,1.63-0.3,1.56-0.27l-1.53,0.27c1.12-0.2,0.34,0-0.09,0l1.3-0.22h-0.34c0.6-0.11,1.44-0.27,2.18-0.39
	c1.15-0.21,0.08,0,1.42-0.23c7.08-1.23,13.94-2.42,21.09-3.69c0.17,0,0,0-0.23,0.05l6-1.07l0.86-0.13
	C41.03,108.92,52.19,106.95,52.37,106.93z"/>
<path class="st1" d="M587.13,26.38c-0.45,0.02-0.86-0.27-1-0.7c-2.37-7.51-4.86-9.37-12.22-9c-0.49,0.01-0.91-0.34-1-0.82
	c-0.09-0.49,0.2-0.97,0.67-1.13c7-2.3,8.67-4.93,8.23-12.78c-0.1-0.55,0.27-1.08,0.82-1.18s1.08,0.27,1.18,0.82
	c2.37,7.5,4.89,9.36,12.23,9c0.49-0.01,0.91,0.34,1,0.82c0.09,0.49-0.2,0.97-0.67,1.13c-7,2.3-8.67,4.93-8.23,12.79
	c0.01,0.49-0.33,0.91-0.81,1L587.13,26.38z M578.44,14.81c3.41,0.36,6.37,2.5,7.78,5.63c0.23-3.41,2.23-6.45,5.28-8
	c-3.41-0.36-6.37-2.5-7.78-5.62C583.5,10.24,581.49,13.28,578.44,14.81z"/>
<text transform="matrix(0.984 -0.178 0.178 0.984 199.0649 88.7711)" class="st0 st2 st3 st4">有限会社 四島組</text>
</svg>
