<?xml version="1.0" encoding="utf-8"?>
<!-- Generator: Adobe Illustrator 25.0.1, SVG Export Plug-In . SVG Version: 6.00 Build 0)  -->
<svg version="1.1" id="Layer_1" xmlns="http://www.w3.org/2000/svg" xmlns:xlink="http://www.w3.org/1999/xlink" x="0px" y="0px"
	 viewBox="0 0 500 260" style="enable-background:new 0 0 500 260;" xml:space="preserve">
<style type="text/css">
	.st0{fill:#FFFFFF;stroke:#010101;stroke-width:0.7087;stroke-linecap:round;}
</style>
<g id="svgGroup">
	<path vector-effect="non-scaling-stroke" class="st0" d="M194.02,48.14l42.39-7.23c0.69-0.12,1.35,0.18,1.83,0.6
		c0.96,0.85,1.98,2.7,2.85,5.4c0.2,0.57,0.38,1.05,0.48,1.64c0.47,1.54,0.74,3.12,1,4.7c0.17,0.99,0.34,1.97,0.42,3.07
		c0.21,2.4,0.13,4.34-0.22,5.82c-3.59-6.79-7.43-11.41-11.35-13.59c-0.68-0.39-1.45-0.77-2.21-1.04c-0.54-0.21-1.07-0.32-1.58-0.34
		c-0.53-0.11-1.13-0.11-1.63-0.03c-0.3,0.05-0.59,0.1-0.87,0.25c-0.38,0.17-0.66,0.31-0.92,0.56c0,0-0.18,0.13-0.26,0.25
		c-0.16,0.23-0.33,0.46-0.47,0.79c-0.21,0.54-0.42,1.09-0.5,1.81c-0.14,0.94-0.19,1.86-0.12,2.86c0.05,0.9,0.14,2.01,0.21,3.01
		c0.07,0.39,0.13,0.79,0.2,1.18l3.08,18.04l2.51,14.69l2.41,14.1c0.13,0.79,0.29,1.68,0.52,2.45c0.53,1.94,1.08,3.37,1.86,4.35
		c0.78,0.98,1.52,1.77,2.23,2.36c0.25,0.26,0.58,0.41,0.82,0.67c0.58,0.41,1.24,0.7,1.89,1c0.44,0.23,0.99,0.44,1.53,0.65
		l-24.64,4.2c0.43-0.48,0.93-1.07,1.34-1.65c0.83-1.06,1.49-1.98,1.85-2.85c0.15-0.33,0.29-0.66,0.44-0.99
		c0.55-1.51,0.78-3.18,0.7-4.79c0.11-1.13-0.09-2.32-0.28-3.4l-7.4-43.37c-0.17-0.99-0.35-2.07-0.52-3.06
		c-0.55-2.64-0.99-4.6-1.4-5.85c-0.05-0.3-0.18-0.48-0.33-0.75c-0.15-0.28-0.31-0.66-0.46-0.94c-0.31-0.66-0.69-1.1-1.06-1.44
		c-0.12-0.08-0.25-0.26-0.36-0.34c-0.35-0.25-0.77-0.38-1.28-0.39c-0.31-0.05-0.71,0.02-1.1,0.09c-0.59,0.1-1.26,0.32-1.82,0.62
		c-0.38,0.17-0.64,0.41-1,0.68c-0.62,0.51-1.05,0.99-1.65,1.6c-0.34,0.36-0.59,0.71-0.92,1.17c-0.57,0.81-1.05,1.6-1.52,2.39
		c-0.23,0.44-0.47,0.79-0.6,1.22c-0.69,1.33-1.26,2.75-1.73,4.15c-0.45,1.5-0.91,3-1.27,4.48c-0.21,1.15-0.42,2.3-0.53,3.44
		c-0.56-0.92-1.04-1.95-1.43-3c-0.37-0.95-0.63-1.92-0.82-3.01c-0.02-0.1-0.03-0.2-0.05-0.3c-0.29-1.68-0.54-3.15-0.68-4.55
		c-0.1-0.59-0.1-1.2-0.11-1.81c0.06-0.82,0.03-1.63,0.01-2.33c-0.02-0.71,0.06-1.43,0.04-2.14c0.01-0.51,0.13-1.04,0.24-1.56
		C192.51,49.41,193.13,48.29,194.02,48.14z"/>
	<path vector-effect="non-scaling-stroke" class="st0" d="M313.46,103.64l-38.94,6.64c0.54-0.4,1.07-0.89,1.59-1.39
		c1.31-1.24,2.24-2.31,2.68-3.3c0.67-1.43,1.01-3.01,1.05-4.54c0.09-1.23-0.03-2.53-0.15-3.83c-0.03-0.2-0.07-0.39-0.1-0.59
		c-0.69-4.04-1.4-8.18-2.09-12.22c-0.62-3.65-1.24-7.29-1.88-11.04l-4.32-25.33c-0.2-1.18-0.52-2.45-0.82-3.61
		c-0.62-2.43-1.53-4.2-2.57-5.55c-0.25-0.26-0.5-0.52-0.74-0.79c-0.5-0.52-1.07-0.93-1.65-1.34c-0.35-0.25-0.58-0.41-0.81-0.57
		l36.18-6.17c0.94,0.14,1.73,0.62,2.45,1.31c1.32,1.2,2.48,3.23,3.48,6.1c0.38,1.05,0.67,2.12,0.85,3.2c0.03,0.2,0.05,0.3,0.08,0.49
		c0.13,0.79,0.27,1.58,0.29,2.28c0.04,0.81,0.06,1.51-0.04,2.14c0,0.61-0.21,1.15-0.32,1.68l-3.45-4.79
		c-0.93-1.26-2.03-2.39-3.32-3.39c-1.62-1.14-3.36-1.86-5.25-2.25c-1.25-0.19-2.48-0.29-3.68-0.18c-0.9,0.05-1.71,0.09-2.58,0.34
		c-0.49,0.08-1.08,0.19-1.58,0.27c-0.99,0.17-1.76,0.4-2.45,0.52c-0.3,0.05-0.57,0.2-0.77,0.23c-0.77,0.23-1.31,0.63-1.74,1.11
		c-0.08,0.12-0.16,0.23-0.25,0.35c-0.25,0.35-0.38,0.77-0.51,1.2c-0.23,1.05-0.19,2.47,0.13,4.34c0.45,2.66,0.86,4.42,1.12,5.39
		c0.07,0.39,0.23,0.77,0.4,1.15c0.28,0.46,0.56,0.92,0.93,1.26c0.48,0.43,1.02,0.64,1.57,0.85c0.95,0.24,2.19,0.34,3.68,0.18
		c0.49-0.08,0.89-0.15,1.38-0.24l15.08-2.57c-0.11,0.53-0.23,1.05-0.34,1.58c-0.24,0.95-0.6,1.83-0.91,2.39
		c-0.08,0.12-0.16,0.23-0.25,0.35c-0.9,1.27-2.16,2.19-3.59,2.74c-0.75,0.33-1.54,0.47-2.23,0.58c-0.79,0.13-1.59,0.17-2.4,0.21
		c-0.2,0.03-0.41-0.03-0.51-0.01c-0.72-0.08-1.43-0.06-2.04-0.06c-0.61,0-1.32,0.02-1.81,0.11c-0.3,0.05-0.49,0.08-0.79,0.13
		c-0.89,0.15-1.76,0.4-2.43,0.62c-0.3,0.05-0.48,0.18-0.75,0.33c-0.28,0.15-0.66,0.31-0.92,0.56c-0.36,0.26-0.7,0.63-0.95,0.97
		c-0.64,1.02-0.84,2.78-0.46,5.05l3.92,22.97c0.18,1.08,0.35,2.07,0.54,3.15c0.8,4.12,1.54,6.64,2.28,7.42
		c0.25,0.26,0.5,0.52,0.84,0.77c0.59,0.51,1.24,0.7,1.96,0.78c1.02,0.03,2.61-0.14,4.88-0.53c1.18-0.2,2.35-0.5,3.4-0.88
		c0.85-0.35,1.71-0.7,2.54-1.14c1.76-1.01,3.08-2.15,4.18-3.45c1.08-1.4,1.83-2.95,2.35-4.66c0.31-1.17,0.63-2.24,0.94-3.41
		c0.18-0.74,0.36-1.48,0.53-2.22c0.48,0.43,0.88,0.97,1.17,1.52c0.28,0.46,0.5,1.13,0.7,1.71c0.2,0.57,0.28,1.07,0.38,1.66
		c0.37,2.17,0.56,3.86,0.6,5.27c0.02,0.1,0.02,0.1,0.03,0.2c0.02,0.71,0.06,1.51-0.02,2.24c-0.01,0.51-0.13,1.04-0.24,1.56
		c-0.11,0.53-0.23,1.05-0.44,1.6C315.61,102.57,314.64,103.44,313.46,103.64z"/>
	<path vector-effect="non-scaling-stroke" class="st0" d="M394.21,89.97l-16.76,2.86c0-0.61,0-1.22-0.01-1.82
		c0.01-1.12-0.04-2.02-0.18-2.81c-0.02-0.1-0.03-0.2-0.05-0.3c-0.05-0.3-0.1-0.59-0.15-0.89c-0.13-0.79-0.24-1.38-0.42-1.86
		c-0.07-0.39-0.23-0.77-0.3-1.17c-0.05-0.3-0.18-0.48-0.23-0.77c-0.22-0.67-0.45-1.44-0.68-2.22c-0.17-0.38-0.23-0.77-0.3-1.17
		c-0.07-0.39-0.25-0.87-0.32-1.26c-0.03-0.2-0.05-0.3-0.08-0.49c-2-7.57-5.74-13.43-11.12-17.58c-1.29-1-2.65-1.88-3.99-2.57
		c-1-0.54-2.19-0.95-3.26-1.27c-0.64-0.19-1.38-0.37-2.12-0.55c-1.58-0.34-2.81-0.43-3.9-0.25c-0.39,0.07-0.79,0.13-1.28,0.22
		c-0.79,0.13-1.36,0.33-1.94,0.53c-0.1,0.02-0.2,0.03-0.28,0.15c-0.85,5.72-0.78,11.49,0.21,17.31c0.24,1.38,0.47,2.76,0.79,4.02
		c0.52,2.45,1.07,4.48,1.55,6.13c0.18,0.48,0.37,0.95,0.53,1.33c1.25,3.14,2.87,6.1,4.67,8.94c0.41,0.64,0.84,1.38,1.36,2
		l-14.59,2.49c0.4-1.79,0.23-5.21-0.52-10.16c-0.13-0.79-0.25-1.48-0.39-2.27c-0.64-3.75-1.06-7.43-1.31-11.24
		c-0.16-2.1-0.21-4.22-0.17-6.36c-0.04-2.63,0.11-5.29,0.28-7.86c0.2-2.37,0.51-4.75,0.93-7.06c0.35-2.09,0.81-4.2,1.36-6.32
		c0.49-1.91,1.09-3.74,1.79-5.58c0.63-1.63,1.27-3.26,2-4.91c0.67-1.43,1.34-2.87,2.1-4.32c0.62-1.12,1.24-2.24,1.88-3.26
		c0.62-1.12,1.27-2.04,1.91-3.07c0.16-0.23,0.33-0.46,0.39-0.68c0.49-0.69,0.98-1.38,1.47-2.08c0.72-1.14,1.36-2.16,1.91-3.07
		l15.18-2.59c-0.64,1.02-0.96,2.09-1.07,3.23c-0.06,0.82-0.11,1.74,0.04,2.63c0.07,0.39,0.12,0.69,0.19,1.08
		c0.17,0.99,0.5,2.35,1.13,4.27c0.22,0.67,0.43,1.35,0.63,1.92l2.68,8.57c1.68,5.09,3.36,10.18,5.14,15.25
		C385.52,75.32,390.74,86.91,394.21,89.97z M360.19,38.66l-3.11-8.09l-2.21,3.72c-3.05,5.29-5.42,11.07-6.92,17.11
		c1.2-0.71,2.45-1.13,3.83-1.36c0.69-0.12,1.28-0.22,1.99-0.24c0.59-0.1,1.2-0.1,1.81-0.11c1.12,0.01,2.35,0.11,3.42,0.43
		c2.42,0.5,4.74,1.63,6.64,3.23c-0.55-1.43-1.08-2.76-1.53-4.2c-1.88-5.06-3.17-8.49-3.75-10.11
		C360.23,38.85,360.21,38.75,360.19,38.66z"/>
	<path vector-effect="non-scaling-stroke" class="st0" d="M429.92,53.74l-13.65-25.87c0.62,4.26,1.25,8.51,1.96,12.65
		c0.1,0.59,0.22,1.28,0.32,1.87c0.61,3.55,1.21,7.1,1.92,10.63c0.75,3.83,1.39,7.57,2.25,11.38c0.15,0.89,0.42,1.86,0.57,2.74
		c1.17,5.68,1.88,9.22,2.18,10.38c0.02,0.1,0.02,0.1,0.03,0.2c0.08,0.49,0.25,0.87,0.43,1.35c0.17,0.38,0.23,0.77,0.4,1.15
		c0.02,0.1,0.13,0.18,0.17,0.38c0.55,1.43,1.36,2.61,2.46,3.74l-13.41,2.29c0.77-1.45,1.11-3.03,1.23-4.67
		c0.03-0.41,0.06-0.82,0-1.22c-0.14-2.01-0.28-4.01-0.4-5.92c-0.12-1.3-0.26-2.7-0.48-3.98c-0.41-2.97-0.9-6.44-1.59-10.48
		c-0.05-0.3-0.1-0.59-0.15-0.89c-0.64-3.75-1.26-7.39-2-11.12c-0.67-3.33-1.34-6.67-2.01-10l-2.75-13.13
		c-1.02-4.8-2.42-8.21-4.13-9.95c-0.38-0.44-0.86-0.87-1.32-1.2c-0.35-0.25-0.69-0.49-1.02-0.64l18.83-3.21
		c1.39,3.41,2.89,6.81,4.48,10.19c0.98,2.17,2.06,4.32,3.13,6.47l13.55,26.5l5.44-47.8l18.73-3.2c-0.41,0.58-0.82,1.15-1.23,1.73
		c-0.64,1.02-0.98,1.99-1.11,3.03c-0.34,2.19-0.33,4.62,0.04,7.4c0.03,0.2,0.07,0.39,0.1,0.59l1.15,8.53
		c1.07,8.64,2.2,16.46,3.38,23.36c0.18,1.08,0.39,2.27,0.57,3.35c0.39,2.27,0.77,4.53,1.26,6.78c1.74,9.04,3.36,14.95,4.74,17.65
		c0.31,0.66,0.71,1.2,1.22,1.82l-15.18,2.59c0.6-1.83,0.77-3.78,0.54-5.77c-0.08-0.49-0.09-1.1-0.17-1.59
		c-0.1-1.2-0.36-2.68-0.53-4.27c-0.13-0.79-0.27-1.58-0.29-2.28c-0.36-2.68-0.71-5.36-1.07-8.04c-1-7.03-1.82-12.47-2.5-16.41
		c-0.03-0.2-0.07-0.39-0.1-0.59c-0.34-1.97-0.69-4.04-1.03-6.01c-0.96-5.62-1.8-9.94-2.43-13.08l-7.9,60.69L429.92,53.74z"/>
</g>
<g id="svgGroup_1_">
	<path vector-effect="non-scaling-stroke" class="st0" d="M27.85,227.36L22,223.39c-5.16-3.49-8.68-6.34-10.71-8.73
		c-1.63-1.85-3.2-3.92-4.38-6.05c-1.45-2.59-2.43-5.37-2.92-8.23c-0.32-1.87-0.32-3.7-0.03-5.57c0.39-1.89,1.09-3.74,2.24-5.35
		c1.62-2.41,3.93-4.32,6.67-5.5c1.59-0.78,3.33-1.28,5.29-1.71c0.3-0.05,0.59-0.1,0.89-0.15c0.59-0.1,1.08-0.18,1.68-0.28
		c1.58-0.27,2.78-0.37,3.7-0.32c0.51,0.01,0.92,0.05,1.41-0.04c1.53,0.04,2.53-0.02,3.12-0.12s1.17-0.3,1.74-0.5
		c0.95-0.36,1.74-1.11,2.31-1.91c0.16-0.23,0.25-0.35,0.41-0.58c0.25-0.35,0.38-0.77,0.6-1.22c0.77,0.38,1.47,0.87,1.99,1.59
		c1.68,2.15,3,6.29,4.02,12.3c0.9,5.32,1.08,9.35,0.43,12.1c-0.07,0.21-0.13,0.43-0.2,0.64c-0.13,0.43-0.38,0.77-0.54,1
		c-0.08,0.12-0.18,0.13-0.16,0.23c-1.31-4.75-3.63-8.82-6.94-12.21c-2.46-2.52-4.96-4.13-7.61-4.79c-1.38-0.37-2.81-0.44-4.29-0.18
		c-0.79,0.13-1.66,0.38-2.41,0.71c-1.97,0.94-3,2.64-3.19,5.11c-0.03,0.41-0.08,0.72-0.01,1.12c-0.03,0.41,0.05,0.9,0.12,1.3
		c0.05,0.3,0.1,0.59,0.15,0.89c0.18,1.08,0.57,2.14,1.28,3.33c0.17,0.38,0.41,0.64,0.68,1c0.79,1.08,1.58,2.17,2.56,3.12
		c0.49,0.52,0.97,0.95,1.47,1.48c1.07,0.93,2.14,1.87,3.2,2.7c0.71,0.59,1.4,1.08,2.19,1.55c4.98,3.62,8.47,6.27,10.78,7.91
		c0.46,0.33,0.82,0.67,1.29,1c1.99,1.59,3.79,3.21,5.52,5.05c1.37,1.49,2.54,3.02,3.63,4.66c1.26,2.02,2.12,4.1,2.68,6.24
		c0.07,0.39,0.15,0.89,0.22,1.28c0.85,4.42-0.2,8.96-2.94,12.57c-0.25,0.35-0.49,0.69-0.75,0.94c-2.38,2.74-5.46,4.88-8.81,6.06
		c-1.9,0.73-3.94,1.28-5.91,1.61c-2.37,0.4-4.68,0.49-7.05,0.28c-2.47-0.19-4.92-0.89-7.22-1.92c-1.65-0.73-3.13-1.7-4.46-2.99
		c-2.06-1.98-3.32-4.61-3.79-7.37c0.4-4.23,2.47-8.13,5.79-10.72c0.28-0.15,0.44-0.38,0.72-0.53c0.98-0.78,2-1.35,2.94-1.82
		c0.07,1,0.14,2.01,0.21,3.01c0.14,2.01,0.32,3.7,0.56,5.08c0.18,1.08,0.48,2.25,0.87,3.3c0.22,0.67,0.53,1.33,0.84,1.99
		c0.45,0.84,0.89,1.67,1.42,2.4c0.4,0.54,0.89,1.07,1.39,1.59c2.41,2.23,5.01,3.21,7.97,2.7c1.18-0.2,2.33-0.6,3.47-1.1
		c3.17-1.65,4.24-4.88,3.42-9.71c-0.37-2.17-1.23-4.25-2.57-6.16C34.75,232.78,31.85,230.03,27.85,227.36z"/>
	<path vector-effect="non-scaling-stroke" class="st0" d="M105.04,213.64l-2.24-13.21c-0.07-0.39-0.13-0.79-0.3-1.17
		c-0.23-0.77-0.43-1.35-0.81-1.79c-0.13-0.18-0.26-0.36-0.49-0.52c-1.17-0.92-2.95-1.22-5.43-0.9c-0.3,0.05-0.49,0.08-0.79,0.13
		l-7.59,1.29c-2.76,0.47-4.63,1.4-5.43,2.65c-0.31,0.56-0.51,1.2-0.5,1.81c0.02,0.71,0.14,1.4,0.25,2.09l2.43,14.3
		c0.37,2.17,0.74,4.34,1.2,6.49c1.67,8.64,3.22,14.16,4.74,16.54c0.3,0.56,0.68,1,1.06,1.44c0.38,0.44,0.87,0.97,1.35,1.39
		c0.25,0.26,0.48,0.43,0.73,0.69l-18.14,3.08c0.18-0.74,0.34-1.58,0.42-2.3c0.24-1.56,0.32-2.89,0.33-4.01c0,0,0,0-0.02-0.1
		c-0.02-0.71-0.14-1.4-0.14-2.01c0-0.61-0.12-1.3-0.12-1.91c-0.02-0.71-0.14-1.4-0.17-2.2c-0.44-4.39-1.05-9.15-1.97-14.58
		c-0.15-0.89-0.3-1.77-0.45-2.66c-1.11-6.51-1.86-10.94-2.28-13.41c-0.4-2.37-0.92-4.81-1.32-7.18c-0.28-1.68-0.67-3.34-0.95-5.01
		c-1.3-6.47-2.28-10.47-2.87-12.09c-0.02-0.1-0.02-0.1-0.03-0.2c-0.17-0.38-0.35-0.85-0.51-1.23c-0.38-1.05-0.7-1.71-0.99-2.27
		c-0.02-0.1-0.13-0.18-0.15-0.28l-1.26-2.02l18.04-3.06c-1.83,2.95-2.53,6.62-2.09,11c0.07,1,0.25,2.09,0.42,3.07
		c0.07,0.39,0.12,0.69,0.18,1.08c0.25,1.48,0.53,2.55,0.96,3.29c0.15,0.28,0.4,0.54,0.55,0.82c0.26,0.36,0.71,0.59,1.04,0.74
		c0.33,0.15,0.54,0.21,0.86,0.26c1.13,0.11,2.94,0.01,5.41-0.41l4.54-0.77c0.59-0.1,1.18-0.2,1.68-0.28
		c1.76-0.4,3.02-0.72,3.66-1.13c0.18-0.13,0.38-0.17,0.56-0.3c1.05-0.99,1.39-2.57,1.09-4.95c-0.05-0.3-0.08-0.49-0.13-0.79
		c-0.27-1.58-0.63-3.14-1.1-4.68c-1.23-4.25-3.06-7.29-5.39-9.03l18.04-3.06c-0.24,0.95-0.49,1.91-0.63,2.85
		c-0.21,1.15-0.22,2.27-0.15,3.27c0.02,1.32,0.14,2.61,0.28,4.01c0.07,0.39,0.04,0.81,0.12,1.3c0.13,0.79,0.17,1.59,0.3,2.38
		c0.13,0.79,0.19,1.69,0.34,2.58c0.05,0.3,0.1,0.59,0.15,0.89c0.19,1.69,0.47,3.37,0.66,5.06c0.1,0.59,0.2,1.18,0.2,1.79
		c0.44,2.56,0.79,5.24,1.22,7.81c0.4,2.37,0.8,4.73,1.19,7c3.05,17.94,5.61,28.87,7.58,32.69l0,0c0.31,0.66,0.73,1.3,1.26,2.02
		L105.36,243c0.39-0.68,0.67-1.43,0.96-2.09c0.57-1.42,0.86-2.68,0.99-3.72c-0.02-0.1-0.03-0.2,0.07-0.21
		c0.13-1.64,0.02-3.45-0.15-5.65c-0.24-3.21-0.75-7.38-1.54-12.62C105.59,216.9,105.31,215.22,105.04,213.64z"/>
	<path vector-effect="non-scaling-stroke" class="st0" d="M133.34,162.28l16.56-2.81c-0.57,2.63-0.84,5.21-0.68,7.93
		c-0.01,0.51,0.07,1,0.14,1.4c0.09,1.1,0.27,2.19,0.34,3.19c0.19,1.69,0.34,3.19,0.57,4.57c0.19,1.69,0.47,3.37,0.64,4.96
		c0.1,0.59,0.2,1.18,0.19,1.69c0.44,2.56,0.77,5.14,1.21,7.71c0.4,2.37,0.79,4.63,1.19,7c3.08,18.14,5.66,29.16,7.75,33.07
		c0.31,0.66,0.71,1.2,1.12,1.84c0.02,0.1,0.12,0.08,0.13,0.18l-16.66,2.83c0.26-0.86,0.41-1.79,0.57-2.63s0.21-1.76,0.19-2.47
		c0.05-0.31-0.02-0.71,0.03-1.02c-0.02-0.71-0.04-1.41-0.17-2.2c0-0.61-0.12-1.3-0.14-2.01c-0.02-0.71-0.15-1.5-0.17-2.2
		c-0.46-5.09-1.25-10.95-2.37-17.55c-0.92-5.42-1.59-9.37-2.04-12.03c-0.08-0.49-0.17-0.99-0.25-1.48c-0.42-2.46-0.92-4.81-1.3-7.08
		c-1.95-9.1-3.45-15.54-4.88-19.15c-0.31-0.66-0.63-1.31-0.93-1.87L133.34,162.28z"/>
	<path vector-effect="non-scaling-stroke" class="st0" d="M376.35,166.34l-13.61-25.78c0.62,4.26,1.24,8.51,1.95,12.65
		c0.1,0.59,0.22,1.28,0.32,1.87c0.6,3.55,1.21,7.1,1.91,10.63c0.75,3.83,1.39,7.57,2.24,11.39c0.15,0.89,0.42,1.86,0.57,2.74
		c1.17,5.68,1.87,9.22,2.17,10.38c0.02,0.1,0.02,0.1,0.03,0.2c0.08,0.49,0.25,0.87,0.43,1.35c0.17,0.38,0.23,0.77,0.4,1.15
		c0.02,0.1,0.13,0.18,0.17,0.38c0.55,1.43,1.36,2.61,2.46,3.74l-13.61,2.31c0.77-1.45,1.11-3.03,1.23-4.67
		c0.03-0.41,0.06-0.82,0-1.22c-0.14-2.01-0.28-4.01-0.4-5.92c-0.12-1.3-0.25-2.7-0.47-3.98c-0.4-2.97-0.89-6.44-1.58-10.48
		c-0.05-0.3-0.1-0.59-0.15-0.89c-0.64-3.75-1.26-7.39-1.99-11.12c-0.67-3.34-1.34-6.67-2-10.01l-2.74-13.13
		c-1.02-4.8-2.41-8.21-4.12-9.95c-0.38-0.44-0.86-0.87-1.32-1.2c-0.35-0.25-0.69-0.49-1.02-0.64l18.83-3.2
		c1.39,3.42,2.88,6.81,4.47,10.2c0.98,2.17,2.05,4.32,3.13,6.47l13.53,26.51l5.65-47.92l18.73-3.18c-0.41,0.58-0.82,1.15-1.23,1.73
		c-0.64,1.02-0.98,1.99-1.11,3.03c-0.34,2.19-0.33,4.62,0.04,7.4c0.03,0.2,0.07,0.39,0.1,0.59l1.14,8.53
		c1.06,8.64,2.19,16.47,3.36,23.37c0.18,1.08,0.39,2.27,0.57,3.35c0.39,2.27,0.77,4.54,1.25,6.79c1.74,9.04,3.35,14.95,4.72,17.66
		c0.31,0.66,0.71,1.2,1.22,1.82l-15.18,2.58c0.6-1.83,0.78-3.78,0.54-5.77c-0.08-0.49-0.09-1.1-0.17-1.59
		c-0.1-1.2-0.35-2.68-0.52-4.27c-0.13-0.79-0.27-1.58-0.29-2.28c-0.35-2.68-0.71-5.36-1.06-8.04c-0.99-7.03-1.81-12.47-2.48-16.42
		c-0.03-0.2-0.07-0.39-0.1-0.59c-0.33-1.97-0.69-4.04-1.02-6.01c-0.95-5.62-1.79-9.94-2.42-13.08l-7.95,60.69L376.35,166.34z"/>
	<path vector-effect="non-scaling-stroke" class="st0" d="M495.75,176.59l-16.76,2.85c0-0.61,0-1.22-0.01-1.82
		c0.01-1.12-0.04-2.02-0.17-2.81c-0.02-0.1-0.03-0.2-0.05-0.3c-0.05-0.3-0.1-0.59-0.15-0.89c-0.13-0.79-0.23-1.38-0.42-1.86
		c-0.07-0.39-0.23-0.77-0.3-1.17c-0.05-0.3-0.18-0.48-0.23-0.77c-0.22-0.67-0.45-1.45-0.68-2.22c-0.17-0.38-0.23-0.77-0.3-1.17
		c-0.07-0.39-0.25-0.87-0.32-1.26c-0.03-0.2-0.05-0.3-0.08-0.49c-2-7.57-5.73-13.43-11.1-17.59c-1.29-1-2.65-1.88-3.99-2.57
		c-1-0.54-2.19-0.95-3.26-1.27c-0.64-0.2-1.38-0.37-2.12-0.55c-1.58-0.34-2.81-0.44-3.9-0.25c-0.39,0.07-0.79,0.13-1.28,0.22
		c-0.79,0.13-1.36,0.33-1.94,0.53c-0.1,0.02-0.2,0.03-0.28,0.15c-0.85,5.72-0.79,11.49,0.2,17.31c0.23,1.38,0.47,2.76,0.79,4.03
		c0.52,2.45,1.07,4.48,1.55,6.13c0.18,0.48,0.36,0.95,0.53,1.33c1.24,3.14,2.86,6.11,4.66,8.95c0.41,0.64,0.84,1.38,1.35,2
		l-14.39,2.44c0.41-1.79,0.23-5.21-0.51-10.16c-0.13-0.79-0.25-1.48-0.39-2.27c-0.64-3.75-1.06-7.43-1.3-11.24
		c-0.15-2.1-0.21-4.22-0.17-6.36c-0.04-2.63,0.12-5.29,0.29-7.86c0.21-2.37,0.51-4.75,0.93-7.06c0.36-2.09,0.81-4.19,1.36-6.32
		c0.49-1.91,1.09-3.74,1.79-5.58c0.64-1.63,1.27-3.26,2.01-4.91c0.67-1.43,1.34-2.86,2.11-4.31c0.62-1.12,1.24-2.24,1.88-3.26
		c0.62-1.12,1.28-2.04,1.91-3.06c0.16-0.23,0.33-0.46,0.39-0.68c0.49-0.69,0.98-1.38,1.47-2.08c0.72-1.14,1.36-2.16,1.91-3.06
		l15.18-2.58c-0.64,1.02-0.96,2.09-1.08,3.23c-0.06,0.82-0.11,1.74,0.04,2.63c0.07,0.39,0.12,0.69,0.18,1.08
		c0.17,0.99,0.5,2.35,1.13,4.27c0.22,0.67,0.43,1.35,0.63,1.92l2.67,8.57c1.68,5.09,3.35,10.18,5.13,15.26
		C487.07,161.94,492.29,173.53,495.75,176.59z M461.77,125.26l-3.12-8.19l-2.21,3.72c-3.06,5.29-5.42,11.06-6.93,17.1
		c1.2-0.71,2.45-1.13,3.83-1.36c0.69-0.12,1.28-0.22,1.99-0.24c0.59-0.1,1.2-0.1,1.81-0.1c1.12,0.01,2.35,0.11,3.42,0.43
		c2.42,0.5,4.74,1.63,6.64,3.23c-0.55-1.43-1.08-2.76-1.53-4.2c-1.87-5.06-3.17-8.49-3.75-10.12
		C461.81,125.45,461.79,125.36,461.77,125.26z"/>
	<path vector-effect="non-scaling-stroke" class="st0" d="M204.09,197.83l-5.85-3.98c-5.16-3.49-8.68-6.34-10.71-8.73
		c-1.63-1.85-3.2-3.92-4.38-6.05c-1.45-2.59-2.43-5.37-2.92-8.23c-0.32-1.87-0.32-3.7-0.03-5.57c0.39-1.89,1.09-3.74,2.24-5.35
		c1.62-2.41,3.93-4.32,6.67-5.5c1.59-0.78,3.33-1.28,5.29-1.71c0.3-0.05,0.59-0.1,0.89-0.15c0.59-0.1,1.08-0.18,1.68-0.28
		c1.58-0.27,2.78-0.37,3.7-0.32c0.51,0.01,0.92,0.05,1.41-0.04c1.53,0.04,2.53-0.02,3.12-0.12c0.59-0.1,1.17-0.3,1.74-0.5
		c0.95-0.36,1.74-1.11,2.31-1.91c0.16-0.23,0.25-0.35,0.41-0.58c0.25-0.35,0.38-0.77,0.6-1.22c0.77,0.38,1.47,0.87,1.99,1.59
		c1.68,2.15,3,6.29,4.02,12.3c0.9,5.32,1.08,9.35,0.43,12.1c-0.07,0.21-0.13,0.43-0.2,0.64c-0.13,0.43-0.38,0.77-0.54,1
		c-0.08,0.12-0.18,0.13-0.16,0.23c-1.31-4.75-3.63-8.82-6.94-12.21c-2.46-2.52-4.96-4.13-7.61-4.79c-1.38-0.37-2.81-0.44-4.29-0.18
		c-0.79,0.13-1.66,0.38-2.41,0.71c-1.97,0.94-3,2.64-3.19,5.11c-0.03,0.41-0.08,0.72-0.01,1.12c-0.03,0.41,0.05,0.9,0.12,1.3
		c0.05,0.3,0.1,0.59,0.15,0.89c0.18,1.08,0.57,2.14,1.28,3.33c0.17,0.38,0.41,0.64,0.68,1c0.79,1.08,1.58,2.17,2.56,3.12
		c0.49,0.52,0.97,0.95,1.47,1.48c1.07,0.93,2.14,1.87,3.2,2.7c0.71,0.59,1.4,1.08,2.19,1.56c4.98,3.62,8.47,6.27,10.78,7.91
		c0.46,0.33,0.82,0.67,1.29,1c1.99,1.59,3.79,3.21,5.52,5.05c1.37,1.49,2.54,3.02,3.63,4.66c1.26,2.02,2.12,4.1,2.68,6.24
		c0.07,0.39,0.15,0.89,0.22,1.28c0.85,4.42-0.2,8.96-2.94,12.57c-0.25,0.35-0.49,0.69-0.75,0.94c-2.38,2.74-5.46,4.88-8.81,6.06
		c-1.9,0.73-3.94,1.28-5.91,1.61c-2.37,0.4-4.68,0.49-7.05,0.28c-2.47-0.19-4.92-0.89-7.22-1.92c-1.65-0.73-3.13-1.7-4.46-2.99
		c-2.06-1.98-3.32-4.61-3.79-7.37c0.4-4.23,2.47-8.13,5.79-10.72c0.28-0.15,0.44-0.38,0.72-0.53c0.98-0.78,2-1.35,2.94-1.82
		c0.07,1,0.14,2.01,0.21,3.01c0.14,2.01,0.32,3.7,0.56,5.08c0.18,1.08,0.48,2.25,0.87,3.3c0.22,0.67,0.53,1.33,0.84,1.99
		c0.45,0.84,0.89,1.67,1.42,2.4c0.4,0.54,0.89,1.07,1.39,1.59c2.41,2.23,5.01,3.21,7.97,2.7c1.18-0.2,2.33-0.6,3.47-1.1
		c3.17-1.65,4.24-4.88,3.42-9.71c-0.37-2.17-1.23-4.25-2.57-6.16C211.01,203.35,208.09,200.5,204.09,197.83z"/>
	<path vector-effect="non-scaling-stroke" class="st0" d="M281.28,184.11l-2.24-13.21c-0.07-0.39-0.13-0.79-0.3-1.17
		c-0.23-0.77-0.43-1.35-0.81-1.79c-0.13-0.18-0.26-0.36-0.49-0.52c-1.17-0.92-2.95-1.22-5.43-0.9c-0.3,0.05-0.49,0.08-0.79,0.13
		l-7.59,1.29c-2.76,0.47-4.63,1.4-5.43,2.65c-0.31,0.56-0.51,1.2-0.5,1.81c0.02,0.71,0.14,1.4,0.25,2.09l2.44,14.39
		c0.37,2.17,0.74,4.34,1.2,6.49c1.67,8.64,3.22,14.16,4.74,16.54c0.3,0.56,0.68,1,1.06,1.44s0.87,0.97,1.35,1.39
		c0.25,0.26,0.48,0.43,0.73,0.69l-18.14,3.08c0.18-0.74,0.34-1.58,0.42-2.3c0.24-1.56,0.32-2.89,0.33-4.01c0,0,0,0-0.02-0.1
		c-0.02-0.71-0.14-1.4-0.14-2.01c0-0.61-0.12-1.3-0.12-1.91c-0.02-0.71-0.14-1.4-0.17-2.2c-0.44-4.39-1.06-9.25-1.99-14.67
		c-0.15-0.89-0.3-1.77-0.45-2.66c-1.11-6.51-1.86-10.94-2.28-13.41c-0.4-2.37-0.92-4.81-1.32-7.18c-0.28-1.68-0.67-3.34-0.95-5.01
		c-1.3-6.47-2.28-10.47-2.87-12.09c-0.02-0.1-0.02-0.1-0.03-0.2c-0.17-0.38-0.35-0.85-0.51-1.23c-0.38-1.05-0.7-1.71-0.99-2.27
		c-0.02-0.1-0.13-0.18-0.15-0.28l-1.26-2.02l18.04-3.06c-1.83,2.95-2.53,6.62-2.09,11c0.07,1,0.25,2.09,0.42,3.07
		c0.07,0.39,0.12,0.69,0.18,1.08c0.25,1.48,0.53,2.55,0.96,3.29c0.15,0.28,0.4,0.54,0.55,0.82c0.26,0.36,0.71,0.59,1.04,0.74
		c0.33,0.15,0.54,0.21,0.86,0.26c1.13,0.11,2.94,0.01,5.41-0.41l4.54-0.77c0.59-0.1,1.18-0.2,1.68-0.28
		c1.76-0.4,3.02-0.72,3.66-1.13c0.18-0.13,0.38-0.17,0.56-0.3c1.05-0.99,1.39-2.57,1.09-4.95c-0.05-0.3-0.08-0.49-0.13-0.79
		c-0.27-1.58-0.63-3.14-1.1-4.68c-1.23-4.25-3.06-7.29-5.39-9.03l18.04-3.06c-0.24,0.95-0.49,1.91-0.63,2.85
		c-0.21,1.15-0.22,2.27-0.15,3.27c0.02,1.32,0.14,2.61,0.28,4.01c0.07,0.39,0.04,0.81,0.12,1.3c0.13,0.79,0.17,1.59,0.3,2.38
		c0.13,0.79,0.19,1.69,0.34,2.58c0.05,0.3,0.1,0.59,0.15,0.89c0.19,1.69,0.47,3.37,0.66,5.06c0.1,0.59,0.2,1.18,0.2,1.79
		c0.44,2.56,0.79,5.24,1.22,7.81c0.4,2.37,0.8,4.73,1.19,7c3.05,17.94,5.61,28.87,7.58,32.69l0,0c0.31,0.66,0.73,1.3,1.26,2.02
		l-18.04,3.06c0.39-0.68,0.67-1.43,0.96-2.09c0.57-1.42,0.86-2.68,0.99-3.72c-0.02-0.1-0.03-0.2,0.07-0.21
		c0.13-1.64,0.02-3.45-0.15-5.65c-0.24-3.21-0.75-7.38-1.54-12.62C281.85,187.47,281.57,185.79,281.28,184.11z"/>
	<path vector-effect="non-scaling-stroke" class="st0" d="M309.58,132.75l16.56-2.81c-0.57,2.63-0.84,5.21-0.68,7.93
		c-0.01,0.51,0.07,1,0.14,1.4c0.09,1.1,0.27,2.19,0.34,3.19c0.19,1.69,0.34,3.19,0.57,4.57c0.19,1.69,0.47,3.37,0.64,4.96
		c0.1,0.59,0.2,1.18,0.19,1.69c0.44,2.56,0.77,5.14,1.21,7.71c0.4,2.37,0.79,4.63,1.19,7c3.08,18.14,5.66,29.16,7.75,33.07
		c0.31,0.66,0.71,1.2,1.12,1.84c0.02,0.1,0.12,0.08,0.13,0.18l-16.66,2.83c0.26-0.86,0.41-1.79,0.57-2.63
		c0.16-0.84,0.21-1.76,0.19-2.47c0.05-0.31-0.02-0.71,0.03-1.02c-0.02-0.71-0.04-1.41-0.17-2.2c0-0.61-0.12-1.3-0.14-2.01
		c-0.02-0.71-0.15-1.5-0.17-2.2c-0.46-5.09-1.25-10.95-2.37-17.55c-0.92-5.42-1.59-9.37-2.04-12.03c-0.08-0.49-0.17-0.99-0.25-1.48
		c-0.42-2.46-0.92-4.81-1.3-7.08c-1.95-9.1-3.45-15.54-4.88-19.15c-0.31-0.66-0.63-1.31-0.93-1.87L309.58,132.75z"/>
</g>
</svg>
