<?xml version="1.0" encoding="utf-8"?>
<!-- Generator: Adobe Illustrator 25.0.1, SVG Export Plug-In . SVG Version: 6.00 Build 0)  -->
<svg version="1.1" id="Layer_1" xmlns="http://www.w3.org/2000/svg" xmlns:xlink="http://www.w3.org/1999/xlink" x="0px" y="0px"
	 viewBox="0 0 550 74.8" style="enable-background:new 0 0 550 74.8;" xml:space="preserve">
<style type="text/css">
	.st0{fill:none;stroke:#000000;stroke-width:0.7087;stroke-linecap:round;}
</style>
<g id="svgGroup">
	<path vector-effect="non-scaling-stroke" class="st0" d="M33,46.5l-5.1-4.9c-4.5-4.3-7.5-7.7-9.1-10.4c-1.3-2.1-2.5-4.4-3.3-6.7
		c-1-2.8-1.5-5.7-1.5-8.6c0-1.9,0.3-3.7,0.9-5.5c0.7-1.8,1.7-3.5,3.1-4.9c2-2.1,4.6-3.6,7.5-4.3C27.2,0.7,29,0.5,31,0.4
		c0.3,0,0.6,0,0.9,0c0.6,0,1.1,0,1.7,0c1.6,0,2.8,0.1,3.7,0.3c0.5,0.1,0.9,0.2,1.4,0.2c1.5,0.3,2.5,0.4,3.1,0.4s1.2-0.1,1.8-0.2
		c1-0.2,1.9-0.8,2.6-1.5c0.2-0.2,0.3-0.3,0.5-0.5C47-1.2,47.2-1.6,47.5-2c0.7,0.5,1.3,1.1,1.7,1.9c1.3,2.4,1.9,6.7,1.9,12.8
		c0,5.4-0.5,9.4-1.6,12c-0.1,0.2-0.2,0.4-0.3,0.6c-0.2,0.4-0.5,0.7-0.7,0.9c-0.1,0.1-0.2,0.1-0.2,0.2c-0.5-4.9-2.1-9.3-4.8-13.2
		c-2-2.9-4.2-4.9-6.7-6c-1.3-0.6-2.7-0.9-4.2-0.9c-0.8,0-1.7,0.1-2.5,0.3c-2.1,0.6-3.4,2.1-4,4.5c-0.1,0.4-0.2,0.7-0.2,1.1
		c-0.1,0.4-0.1,0.9-0.1,1.3c0,0.3,0,0.6,0,0.9c0,1.1,0.2,2.2,0.7,3.5c0.1,0.4,0.3,0.7,0.5,1.1c0.6,1.2,1.2,2.4,2,3.5
		c0.4,0.6,0.8,1.1,1.2,1.7c0.9,1.1,1.8,2.2,2.7,3.2c0.6,0.7,1.2,1.3,1.9,1.9c4.3,4.4,7.3,7.6,9.3,9.6c0.4,0.4,0.7,0.8,1.1,1.2
		c1.7,1.9,3.2,3.8,4.6,5.9c1.1,1.7,2,3.4,2.8,5.2c0.9,2.2,1.4,4.4,1.6,6.6c0,0.4,0,0.9,0,1.3c0.1,4.5-1.7,8.8-5,11.9
		c-0.3,0.3-0.6,0.6-0.9,0.8c-2.8,2.3-6.2,3.9-9.7,4.5c-2,0.4-4.1,0.6-6.1,0.6c-2.4,0-4.7-0.3-7-0.9c-2.4-0.6-4.7-1.7-6.8-3.1
		c-1.5-1-2.8-2.2-3.9-3.7c-1.7-2.3-2.5-5.1-2.5-7.9c1.1-4.1,3.8-7.6,7.5-9.6c0.3-0.1,0.5-0.3,0.8-0.4c1.1-0.6,2.2-1,3.2-1.3
		c-0.1,1-0.2,2-0.3,3c-0.2,2-0.3,3.7-0.3,5.1c0,1.1,0.1,2.3,0.3,3.4c0.1,0.7,0.3,1.4,0.5,2.1c0.3,0.9,0.6,1.8,1,2.6
		c0.3,0.6,0.7,1.2,1.1,1.8c2,2.6,4.4,4,7.4,4c1.2,0,2.4-0.2,3.6-0.5c3.4-1.1,5-4.1,5-9c0-2.2-0.5-4.4-1.5-6.5
		C38.9,53,36.5,49.8,33,46.5z"/>
	<path vector-effect="non-scaling-stroke" class="st0" d="M111.4,45.9V32.5c0-0.4,0-0.8-0.1-1.2c-0.1-0.8-0.2-1.4-0.5-1.9
		c-0.1-0.2-0.2-0.4-0.4-0.6c-1-1.1-2.7-1.7-5.2-1.8c-0.3,0-0.5,0-0.8,0h-7.7c-2.8,0-4.8,0.6-5.8,1.7c-0.4,0.5-0.7,1.1-0.8,1.7
		C90,31.1,90,31.8,90,32.5V47c0,2.2,0,4.4,0.1,6.6c0.2,8.8,0.8,14.5,1.9,17.1c0.2,0.6,0.5,1.1,0.8,1.6s0.7,1.1,1.1,1.6
		c0.2,0.3,0.4,0.5,0.6,0.8H76.1c0.3-0.7,0.6-1.5,0.8-2.2c0.5-1.5,0.8-2.8,1-3.9c0,0,0,0,0-0.1c0.1-0.7,0.1-1.4,0.2-2
		c0.1-0.6,0.1-1.3,0.2-1.9c0.1-0.7,0.1-1.4,0.2-2.2C78.8,58,79,53.2,79,47.7c0-0.9,0-1.8,0-2.7c0-6.6,0-11.1,0-13.6
		c0-2.4-0.1-4.9-0.1-7.3c0-1.7-0.1-3.4-0.1-5.1C78.6,12.4,78.3,8.3,78,6.6c0-0.1,0-0.1,0-0.2c-0.1-0.4-0.2-0.9-0.3-1.3
		c-0.2-1.1-0.4-1.8-0.6-2.4c0-0.1-0.1-0.2-0.1-0.3l-0.9-2.2h18.3c-2.3,2.6-3.6,6.1-3.9,10.5c-0.1,1-0.1,2.1-0.1,3.1
		c0,0.4,0,0.7,0,1.1c0,1.5,0.1,2.6,0.4,3.4c0.1,0.3,0.3,0.6,0.4,0.9c0.2,0.4,0.6,0.7,0.9,0.9c0.3,0.2,0.5,0.3,0.8,0.4
		c1.1,0.3,2.9,0.5,5.4,0.5h4.6c0.6,0,1.2,0,1.7,0c1.8-0.1,3.1-0.2,3.8-0.5c0.2-0.1,0.4-0.1,0.6-0.2c1.2-0.8,1.8-2.3,1.9-4.7
		c0-0.3,0-0.5,0-0.8c0-1.6-0.1-3.2-0.3-4.8c-0.5-4.4-1.8-7.7-3.8-9.8h18.3c-0.4,0.9-0.8,1.8-1.1,2.7c-0.4,1.1-0.6,2.2-0.7,3.2
		c-0.2,1.3-0.3,2.6-0.4,4c0,0.4-0.1,0.8-0.1,1.3c0,0.8-0.1,1.6-0.1,2.4c0,0.8-0.1,1.7-0.1,2.6c0,0.3,0,0.6,0,0.9
		c-0.1,1.7-0.1,3.4-0.2,5.1c0,0.6,0,1.2-0.1,1.8c0,2.6-0.1,5.3-0.1,7.9c0,2.4,0,4.8,0,7.1c0,18.2,0.7,29.4,2,33.5l0,0
		c0.2,0.7,0.5,1.4,0.9,2.2h-18.3c0.5-0.6,0.9-1.3,1.3-1.9c0.8-1.3,1.3-2.5,1.6-3.5c0-0.1,0-0.2,0.1-0.2c0.4-1.6,0.6-3.4,0.8-5.6
		c0.3-3.2,0.5-7.4,0.6-12.7C111.4,49.2,111.4,47.5,111.4,45.9z"/>
	<path vector-effect="non-scaling-stroke" class="st0" d="M147.9,0h16.8c-1,2.5-1.7,5-2,7.7c-0.1,0.5-0.1,1-0.1,1.4
		c-0.1,1.1-0.1,2.2-0.2,3.2c-0.1,1.7-0.2,3.2-0.2,4.6c-0.1,1.7-0.1,3.4-0.2,5c0,0.6,0,1.2-0.1,1.7c0,2.6-0.1,5.2-0.1,7.8
		c0,2.4,0,4.7,0,7.1c0,18.4,0.7,29.7,2.1,33.9c0.2,0.7,0.5,1.3,0.8,2c0,0.1,0.1,0.1,0.1,0.2h-16.9c0.4-0.8,0.7-1.7,1-2.5
		s0.5-1.7,0.6-2.4c0.1-0.3,0.1-0.7,0.2-1c0.1-0.7,0.2-1.4,0.2-2.2c0.1-0.6,0.1-1.3,0.2-2c0.1-0.7,0.1-1.5,0.2-2.2
		c0.4-5.1,0.6-11,0.6-17.7c0-5.5,0-9.5,0-12.2c0-0.5,0-1,0-1.5c0-2.5-0.1-4.9-0.1-7.2c-0.4-9.3-0.8-15.9-1.6-19.7
		c-0.2-0.7-0.4-1.4-0.6-2L147.9,0z"/>
	<path vector-effect="non-scaling-stroke" class="st0" d="M386.8,44.7L377.7,17c-0.1,4.3-0.2,8.6-0.2,12.8c0,0.6,0,1.3,0,1.9
		c0,3.6,0,7.2,0.1,10.8c0.1,3.9,0.1,7.7,0.3,11.6c0,0.9,0.1,1.9,0.1,2.8c0.2,5.8,0.3,9.4,0.4,10.6c0,0.1,0,0.1,0,0.2
		c0,0.5,0.1,0.9,0.2,1.4c0.1,0.4,0.1,0.8,0.2,1.2c0,0.1,0.1,0.2,0.1,0.4c0.3,1.5,0.9,2.8,1.8,4.1h-13.8c1-1.3,1.6-2.8,2-4.4
		c0.1-0.4,0.2-0.8,0.2-1.2c0.2-2,0.4-4,0.6-5.9c0.1-1.3,0.2-2.7,0.2-4c0.1-3,0.2-6.5,0.2-10.6c0-0.3,0-0.6,0-0.9
		c0-3.8,0-7.5-0.1-11.3c-0.1-3.4-0.2-6.8-0.3-10.2l-0.5-13.4c-0.2-4.9-1-8.5-2.4-10.5c-0.3-0.5-0.7-1-1.1-1.4
		c-0.3-0.3-0.6-0.6-0.9-0.8h19.1c0.8,3.6,1.7,7.2,2.7,10.8c0.6,2.3,1.3,4.6,2,6.9l8.9,28.4L411.1,0h19c-0.5,0.5-1,1-1.5,1.5
		c-0.8,0.9-1.3,1.8-1.6,2.8c-0.7,2.1-1.1,4.5-1.2,7.3c0,0.2,0,0.4,0,0.6l-0.3,8.6c-0.4,8.7-0.6,16.6-0.6,23.6c0,1.1,0,2.3,0,3.4
		c0,2.3,0,4.6,0.1,6.9c0.2,9.2,0.8,15.3,1.7,18.2c0.2,0.7,0.5,1.3,0.9,2h-15.4c0.9-1.7,1.4-3.6,1.5-5.6c0-0.5,0.1-1.1,0.1-1.6
		c0.1-1.2,0.1-2.7,0.2-4.3c0-0.8,0-1.6,0.1-2.3c0.1-2.7,0.2-5.4,0.3-8.1c0.2-7.1,0.3-12.6,0.3-16.6c0-0.2,0-0.4,0-0.6
		c0-2,0-4.1,0-6.1c0-5.7-0.1-10.1-0.2-13.3l-18,58.5L386.8,44.7z"/>
	<path vector-effect="non-scaling-stroke" class="st0" d="M502.8,74.8h-17c0.1-0.6,0.2-1.2,0.3-1.8c0.2-1.1,0.3-2,0.3-2.8
		c0-0.1,0-0.2,0-0.3c0-0.3,0-0.6,0-0.9c0-0.8,0-1.4-0.1-1.9c0-0.4-0.1-0.8-0.1-1.2c0-0.3-0.1-0.5-0.1-0.8c-0.1-0.7-0.2-1.5-0.3-2.3
		c-0.1-0.4-0.1-0.8-0.1-1.2s-0.1-0.9-0.1-1.3c0-0.2,0-0.3,0-0.5c-0.7-7.8-3.4-14.2-8-19.2c-1.1-1.2-2.3-2.3-3.5-3.2
		c-0.9-0.7-2-1.3-3-1.8c-0.6-0.3-1.3-0.6-2-0.9c-1.5-0.6-2.7-0.9-3.8-0.9c-0.4,0-0.8,0-1.3,0c-0.8,0-1.4,0.1-2,0.2
		c-0.1,0-0.2,0-0.3,0.1c-1.8,5.5-2.7,11.2-2.7,17.1c0,1.4,0,2.8,0.1,4.1c0.1,2.5,0.3,4.6,0.5,6.3c0.1,0.5,0.2,1,0.3,1.4
		c0.7,3.3,1.8,6.5,3.1,9.6c0.3,0.7,0.6,1.5,1,2.2h-14.6c0.7-1.7,1.1-5.1,1.2-10.1c0-0.8,0-1.5,0-2.3c0-3.8,0.2-7.5,0.6-11.3
		c0.2-2.1,0.5-4.2,0.9-6.3c0.4-2.6,1-5.2,1.6-7.7c0.6-2.3,1.3-4.6,2.1-6.8c0.7-2,1.5-4,2.4-6c0.8-1.8,1.7-3.5,2.7-5.2
		c0.9-1.5,1.8-3,2.8-4.5c0.9-1.3,1.8-2.6,2.8-3.9c0.8-1,1.6-2,2.4-2.9c0.8-1,1.6-1.8,2.4-2.7c0.2-0.2,0.4-0.4,0.5-0.6
		c0.6-0.6,1.2-1.2,1.8-1.8c0.9-1,1.7-1.9,2.4-2.7h15.4c-0.8,0.9-1.3,1.9-1.6,3c-0.2,0.8-0.4,1.7-0.4,2.6c0,0.4,0,0.7,0,1.1
		c0,1,0.1,2.4,0.4,4.4c0.1,0.7,0.2,1.4,0.3,2l1.2,8.9c0.8,5.3,1.6,10.6,2.5,15.9C496.7,58.9,499.9,71.2,502.8,74.8z M477.9,18.5
		l-1.7-8.6l-2.8,3.3c-3.9,4.7-7.2,10-9.7,15.7c1.3-0.5,2.6-0.7,4-0.7c0.7,0,1.3,0,2,0.1c0.6,0,1.2,0.1,1.8,0.2
		c1.1,0.2,2.3,0.5,3.3,1c2.3,0.9,4.4,2.4,6,4.3c-0.3-1.5-0.6-2.9-0.8-4.4c-1-5.3-1.7-8.9-2-10.6C477.9,18.7,477.9,18.6,477.9,18.5z"
		/>
	<path vector-effect="non-scaling-stroke" class="st0" d="M211.7,46.9l-5.1-4.9c-4.5-4.3-7.5-7.7-9.1-10.4c-1.3-2.1-2.5-4.4-3.3-6.7
		c-1-2.8-1.5-5.7-1.5-8.6c0-1.9,0.3-3.7,0.9-5.5c0.7-1.8,1.7-3.5,3.1-4.9c2-2.1,4.6-3.6,7.5-4.3c1.7-0.5,3.5-0.7,5.5-0.8
		c0.3,0,0.6,0,0.9,0c0.6,0,1.1,0,1.7,0c1.6,0,2.8,0.1,3.7,0.3c0.5,0.1,0.9,0.2,1.4,0.2c1.5,0.3,2.5,0.4,3.1,0.4
		c0.6,0,1.2-0.1,1.8-0.2c1-0.2,1.9-0.8,2.6-1.5c0.2-0.2,0.3-0.3,0.5-0.5c0.3-0.3,0.5-0.7,0.8-1.1c0.7,0.5,1.3,1.1,1.7,1.9
		c1.3,2.4,1.9,6.7,1.9,12.8c0,5.4-0.5,9.4-1.6,12c-0.1,0.2-0.2,0.4-0.3,0.6c-0.2,0.4-0.5,0.7-0.7,0.9c-0.1,0.1-0.2,0.1-0.2,0.2
		c-0.5-4.9-2.1-9.3-4.8-13.2c-2-2.9-4.2-4.9-6.7-6c-1.3-0.6-2.7-0.9-4.2-0.9c-0.8,0-1.7,0.1-2.5,0.3c-2.1,0.6-3.4,2.1-4,4.5
		c-0.1,0.4-0.2,0.7-0.2,1.1c-0.1,0.4-0.1,0.9-0.1,1.3c0,0.3,0,0.6,0,0.9c0,1.1,0.2,2.2,0.7,3.5c0.1,0.4,0.3,0.7,0.5,1.1
		c0.6,1.2,1.2,2.4,2,3.5c0.4,0.6,0.8,1.1,1.2,1.7c0.9,1.1,1.8,2.2,2.7,3.2c0.6,0.7,1.2,1.3,1.9,1.9c4.3,4.4,7.3,7.6,9.3,9.6
		c0.4,0.4,0.7,0.8,1.1,1.2c1.7,1.9,3.2,3.8,4.6,5.9c1.1,1.7,2,3.4,2.8,5.2c0.9,2.2,1.4,4.4,1.6,6.6c0,0.4,0,0.9,0,1.3
		c0.1,4.5-1.7,8.8-5,11.9c-0.3,0.3-0.6,0.6-0.9,0.8c-2.8,2.3-6.2,3.9-9.7,4.5c-2,0.4-4.1,0.6-6.1,0.6c-2.4,0-4.7-0.3-7-0.9
		c-2.4-0.6-4.7-1.7-6.8-3.1c-1.5-1-2.8-2.2-3.9-3.7c-1.7-2.3-2.5-5.1-2.5-7.9c1.1-4.1,3.8-7.6,7.5-9.6c0.3-0.1,0.5-0.3,0.8-0.4
		c1.1-0.6,2.2-1,3.2-1.3c-0.1,1-0.2,2-0.3,3c-0.2,2-0.3,3.7-0.3,5.1c0,1.1,0.1,2.3,0.3,3.4c0.1,0.7,0.3,1.4,0.5,2.1
		c0.3,0.9,0.6,1.8,1,2.6c0.3,0.6,0.7,1.2,1.1,1.8c2,2.6,4.4,4,7.4,4c1.2,0,2.4-0.2,3.6-0.5c3.4-1.1,5-4.1,5-9c0-2.2-0.5-4.4-1.5-6.5
		C217.6,53.5,215.2,50.2,211.7,46.9z"/>
	<path vector-effect="non-scaling-stroke" class="st0" d="M290.1,46.3V32.9c0-0.4,0-0.8-0.1-1.2c-0.1-0.8-0.2-1.4-0.5-1.9
		c-0.1-0.2-0.2-0.4-0.4-0.6c-1-1.1-2.7-1.7-5.2-1.8c-0.3,0-0.5,0-0.8,0h-7.7c-2.8,0-4.8,0.6-5.8,1.7c-0.4,0.5-0.7,1.1-0.8,1.7
		c-0.1,0.7-0.1,1.4-0.1,2.1v14.6c0,2.2,0,4.4,0.1,6.6c0.2,8.8,0.8,14.5,1.9,17.1c0.2,0.6,0.5,1.1,0.8,1.6c0.3,0.5,0.7,1.1,1.1,1.6
		c0.2,0.3,0.4,0.5,0.6,0.8h-18.4c0.3-0.7,0.6-1.5,0.8-2.2c0.5-1.5,0.8-2.8,1-3.9c0,0,0,0,0-0.1c0.1-0.7,0.1-1.4,0.2-2
		s0.1-1.3,0.2-1.9c0.1-0.7,0.1-1.4,0.2-2.2c0.3-4.4,0.5-9.3,0.5-14.8c0-0.9,0-1.8,0-2.7c0-6.6,0-11.1,0-13.6c0-2.4-0.1-4.9-0.1-7.3
		c0-1.7-0.1-3.4-0.1-5.1c-0.2-6.6-0.5-10.7-0.8-12.4c0-0.1,0-0.1,0-0.2c-0.1-0.4-0.2-0.9-0.3-1.3c-0.2-1.1-0.4-1.8-0.6-2.4
		c0-0.1-0.1-0.2-0.1-0.3l-0.9-2.2h18.3c-2.3,2.6-3.6,6.1-3.9,10.5c-0.1,1-0.1,2.1-0.1,3.1c0,0.4,0,0.7,0,1.1c0,1.5,0.1,2.6,0.4,3.4
		c0.1,0.3,0.3,0.6,0.4,0.9c0.2,0.4,0.6,0.7,0.9,0.9c0.3,0.2,0.5,0.3,0.8,0.4c1.1,0.3,2.9,0.5,5.4,0.5h4.6c0.6,0,1.2,0,1.7,0
		c1.8-0.1,3.1-0.2,3.8-0.5c0.2-0.1,0.4-0.1,0.6-0.2c1.2-0.8,1.8-2.3,1.9-4.7c0-0.3,0-0.5,0-0.8c0-1.6-0.1-3.2-0.3-4.8
		c-0.5-4.4-1.8-7.7-3.8-9.8h18.3c-0.4,0.9-0.8,1.8-1.1,2.7c-0.4,1.1-0.6,2.2-0.7,3.2c-0.2,1.3-0.3,2.6-0.4,4c0,0.4-0.1,0.8-0.1,1.3
		c0,0.8-0.1,1.6-0.1,2.4c0,0.8-0.1,1.7-0.1,2.6c0,0.3,0,0.6,0,0.9c-0.1,1.7-0.1,3.4-0.2,5.1c0,0.6,0,1.2-0.1,1.8
		c0,2.6-0.1,5.3-0.1,7.9c0,2.4,0,4.8,0,7.1c0,18.2,0.7,29.4,2,33.5l0,0c0.2,0.7,0.5,1.4,0.9,2.2h-18.3c0.5-0.6,0.9-1.3,1.3-1.9
		c0.8-1.3,1.3-2.5,1.6-3.5c0-0.1,0-0.2,0.1-0.2c0.4-1.6,0.6-3.4,0.8-5.6c0.3-3.2,0.5-7.4,0.6-12.7C290.1,49.7,290.1,48,290.1,46.3z"
		/>
	<path vector-effect="non-scaling-stroke" class="st0" d="M326.6,0.4h16.8c-1,2.5-1.7,5-2,7.7c-0.1,0.5-0.1,1-0.1,1.4
		c-0.1,1.1-0.1,2.2-0.2,3.2c-0.1,1.7-0.2,3.2-0.2,4.6c-0.1,1.7-0.1,3.4-0.2,5c0,0.6,0,1.2-0.1,1.7c0,2.6-0.1,5.2-0.1,7.8
		c0,2.4,0,4.7,0,7.1c0,18.4,0.7,29.7,2.1,33.9c0.2,0.7,0.5,1.3,0.8,2c0,0.1,0.1,0.1,0.1,0.2h-16.9c0.4-0.8,0.7-1.7,1-2.5
		c0.3-0.8,0.5-1.7,0.6-2.4c0.1-0.3,0.1-0.7,0.2-1c0.1-0.7,0.2-1.4,0.2-2.2c0.1-0.6,0.1-1.3,0.2-2c0.1-0.7,0.1-1.5,0.2-2.2
		c0.4-5.1,0.6-11,0.6-17.7c0-5.5,0-9.5,0-12.2c0-0.5,0-1,0-1.5c0-2.5-0.1-4.9-0.1-7.2c-0.4-9.3-0.8-15.9-1.6-19.7
		c-0.2-0.7-0.4-1.4-0.6-2L326.6,0.4z"/>
</g>
</svg>
