<?xml version="1.0" encoding="utf-8"?>
<!-- Generator: Adobe Illustrator 25.0.1, SVG Export Plug-In . SVG Version: 6.00 Build 0)  -->
<svg version="1.1" id="Layer_1" xmlns="http://www.w3.org/2000/svg" xmlns:xlink="http://www.w3.org/1999/xlink" x="0px" y="0px"
	 viewBox="0 0 65 390" style="enable-background:new 0 0 65 200; fill: #aba463;" xml:space="preserve">
<style type="text/css">
	.st0{font-family:'nagayama_kai-90ms-RKSJ-H';}
	.st1{font-size:18px;}
</style>
<text transform="matrix(1 0 0 1 38.1235 105.1719)"><tspan x="0" y="0" class="st0 st1">但</tspan><tspan x="0" y="21" class="st0 st1">し</tspan><tspan x="0" y="42" class="st0 st1">徹</tspan><tspan x="0" y="63" class="st0 st1">底</tspan><tspan x="0" y="84" class="st0 st1">的</tspan><tspan x="0" y="105" class="st0 st1">に</tspan><tspan x="12.2" y="126" class="st0 st1">!</tspan><tspan x="0" y="147" class="st0 st1">全</tspan><tspan x="0" y="168" class="st0 st1">カ</tspan><tspan x="0" y="189" class="st0 st1">で</tspan><tspan x="12.2" y="210" class="st0 st1">!</tspan></text>
<text transform="matrix(1 0 0 1 11.169 48.2096)"><tspan x="0" y="0" class="st0 st1">当</tspan><tspan x="0" y="21" class="st0 st1">た</tspan><tspan x="0" y="42" class="st0 st1">り</tspan><tspan x="0" y="63" class="st0 st1">前</tspan><tspan x="0" y="84" class="st0 st1">の</tspan><tspan x="0" y="105" class="st0 st1">事</tspan><tspan x="0" y="126" class="st0 st1">を</tspan><tspan x="0" y="147" class="st0 st1">当</tspan><tspan x="0" y="168" class="st0 st1">た</tspan><tspan x="0" y="189" class="st0 st1">り</tspan><tspan x="0" y="210" class="st0 st1">前</tspan><tspan x="0" y="231" class="st0 st1">に</tspan></text>
</svg>
