
<svg version="1.1" id="Layer_1" xmlns="http://www.w3.org/2000/svg" xmlns:xlink="http://www.w3.org/1999/xlink" x="0px" y="0px"
	 viewBox="0 0 23 23" style="enable-background:new 0 0 23 23;" xml:space="preserve">
<style type="text/css">
	.st0{fill: #ff0;}
</style>
<path class="st0" d="M11.79,23.41c-0.5,0.01-0.93-0.36-1-0.85c-1.09-7-3.13-9-9.9-9.7c-0.55,0-1-0.45-1-1s0.45-1,1-1
	c6.73-1.07,8.65-3.17,9.38-10.19c-0.02-0.55,0.42-1.01,0.97-1.03s1.01,0.42,1.03,0.97c1.09,7,3.13,9,9.9,9.69c0.55,0,1,0.45,1,1
	s-0.45,1-1,1c-6.73,1.07-8.65,3.17-9.38,10.2c-0.06,0.51-0.49,0.89-1,0.89L11.79,23.41z M5.6,11.75c2.89,0.81,5.17,3.02,6.06,5.89
	c0.74-2.91,2.91-5.24,5.75-6.2c-2.89-0.8-5.17-3.02-6.06-5.89C10.61,8.46,8.44,10.8,5.6,11.75z"/>
</svg>
