<?xml version="1.0" encoding="utf-8"?>
<!-- Generator: Adobe Illustrator 25.0.1, SVG Export Plug-In . SVG Version: 6.00 Build 0)  -->
<svg version="1.1" id="Layer_1" xmlns="http://www.w3.org/2000/svg" xmlns:xlink="http://www.w3.org/1999/xlink" x="0px" y="0px"
	 viewBox="0 0 300 74.7" style="enable-background:new 0 0 300 74.7;" xml:space="preserve">
<style type="text/css">
	.st0{fill:none;stroke:#000000;stroke-width:0.7087;stroke-linecap:round;}
</style>
<text transform="matrix(1 0 0 1 960 540)" style="font-family:'ArialMT'; font-size:12px;">&lt;path d=&quot;M 22.021 44.727 L 12.891 16.943 A 532.247 532.247 0 0 0 12.698 29.793 A 587.059 587.059 0 0 0 12.695 31.689 A 709.199 709.199 0 0 0 12.781 42.493 A 880.592 880.592 0 0 0 13.037 54.102 A 1965.618 1965.618 0 0 0 13.12 56.942 Q 13.382 65.715 13.53 67.532 A 9.653 9.653 0 0 0 13.55 67.749 A 27.909 27.909 0 0 0 13.723 69.101 Q 13.817 69.714 13.934 70.254 A 15.565 15.565 0 0 0 14.014 70.605 A 12.825 12.825 0 0 0 15.771 74.707 L 2.148 74.707 A 12.489 12.489 0 0 0 4.16 70.257 A 11.994 11.994 0 0 0 4.37 69.043 Q 4.736 66.016 4.932 63.184 A 137.057 137.057 0 0 0 5.138 59.196 Q 5.31 54.705 5.321 48.584 A 470.157 470.157 0 0 0 5.322 47.705 A 620.067 620.067 0 0 0 5.225 36.45 A 466.041 466.041 0 0 0 4.932 26.221 L 4.395 12.793 Q 4.102 5.371 2.002 2.246 A 10.652 10.652 0 0 0 0.854 0.819 A 13.289 13.289 0 0 0 0 0 L 19.092 0 A 246.858 246.858 0 0 0 21.835 10.838 A 301.558 301.558 0 0 0 23.828 17.725 L 32.715 46.094 L 46.338 0 L 65.381 0 A 14.206 14.206 0 0 0 63.876 1.522 Q 62.725 2.889 62.256 4.297 Q 61.249 7.455 61.057 11.558 A 40.17 40.17 0 0 0 61.035 12.109 L 60.693 20.752 Q 60.148 33.802 60.071 44.328 A 463.549 463.549 0 0 0 60.059 47.705 A 347.817 347.817 0 0 0 60.122 54.596 Q 60.397 68.43 61.865 72.754 Q 62.207 73.73 62.744 74.707 L 47.363 74.707 A 13.919 13.919 0 0 0 48.853 69.116 A 154.239 154.239 0 0 0 48.936 67.473 Q 49.021 65.632 49.1 63.187 A 544.629 544.629 0 0 0 49.17 60.84 A 1819.998 1819.998 0 0 0 49.426 52.762 Q 49.739 42.088 49.755 36.2 A 228.11 228.11 0 0 0 49.756 35.596 A 1139.94 1139.94 0 0 0 49.741 29.495 Q 49.695 20.972 49.512 16.211 L 31.543 74.707 L 22.021 44.727 Z&quot; vector-effect=&quot;non-scaling-stroke&quot;/&gt;</text>
<g id="svgGroup">
	<path vector-effect="non-scaling-stroke" class="st0" d="M15.7,0h43c0.7,0,1.3,0.4,1.7,0.9c0.8,1,1.5,3,1.9,5.8
		c0.1,0.6,0.2,1.1,0.2,1.7c0.2,1.6,0.2,3.2,0.2,4.8c0,1,0,2-0.1,3.1c-0.2,2.4-0.6,4.3-1.2,5.7C59,14.7,56,9.5,52.5,6.7
		c-0.6-0.5-1.3-1-2-1.4C50,5,49.5,4.8,49,4.7c-0.5-0.2-1.1-0.3-1.6-0.3c-0.3,0-0.6,0-0.9,0.1c-0.4,0.1-0.7,0.2-1,0.4
		c0,0-0.2,0.1-0.3,0.2c-0.2,0.2-0.4,0.4-0.6,0.7c-0.3,0.5-0.6,1-0.8,1.7c-0.3,0.9-0.5,1.8-0.6,2.8c-0.1,0.9-0.2,2-0.3,3
		c0,0.4,0,0.8,0,1.2v18.3v14.9V62c0,0.8,0,1.7,0.1,2.5c0.2,2,0.5,3.5,1.1,4.6s1.2,2,1.8,2.7c0.2,0.3,0.5,0.5,0.7,0.8
		c0.5,0.5,1.1,0.9,1.7,1.3c0.4,0.3,0.9,0.6,1.4,0.9h-25c0.5-0.4,1.1-0.9,1.6-1.4c1-0.9,1.8-1.7,2.3-2.5c0.2-0.3,0.4-0.6,0.6-0.9
		c0.8-1.4,1.3-3,1.5-4.6C31,64.3,31,63.1,31,62V18c0-1,0-2.1,0-3.1c-0.1-2.7-0.2-4.7-0.4-6c0-0.3-0.1-0.5-0.2-0.8s-0.2-0.7-0.3-1
		c-0.2-0.7-0.5-1.2-0.8-1.6c-0.1-0.1-0.2-0.3-0.3-0.4c-0.3-0.3-0.7-0.5-1.2-0.6c-0.3-0.1-0.7-0.1-1.1-0.1c-0.6,0-1.3,0.1-1.9,0.3
		c-0.4,0.1-0.7,0.3-1.1,0.5C23,5.6,22.5,6,21.8,6.5c-0.4,0.3-0.7,0.6-1.1,1c-0.7,0.7-1.3,1.4-1.9,2.1c-0.3,0.4-0.6,0.7-0.8,1.1
		c-0.9,1.2-1.7,2.5-2.4,3.8c-0.7,1.4-1.4,2.8-2,4.2c-0.4,1.1-0.8,2.2-1.1,3.3c-0.4-1-0.7-2.1-0.9-3.2c-0.2-1-0.3-2-0.3-3.1
		c0-0.1,0-0.2,0-0.3c0-1.7,0-3.2,0.1-4.6c0-0.6,0.1-1.2,0.2-1.8c0.2-0.8,0.3-1.6,0.4-2.3s0.3-1.4,0.4-2.1c0.1-0.5,0.3-1,0.5-1.5
		C14,1,14.8,0,15.7,0z"/>
	<path vector-effect="non-scaling-stroke" class="st0" d="M124.1,74.8H84.6c0.6-0.3,1.2-0.7,1.8-1.1c1.5-1,2.6-1.9,3.2-2.8
		c0.9-1.3,1.5-2.8,1.8-4.3c0.3-1.2,0.4-2.5,0.5-3.8c0-0.2,0-0.4,0-0.6c0-4.1,0-8.3,0-12.4c0-3.7,0-7.4,0-11.2V12.9
		c0-1.2-0.1-2.5-0.2-3.7c-0.2-2.5-0.8-4.4-1.6-5.9c-0.2-0.3-0.4-0.6-0.6-0.9c-0.4-0.6-0.9-1.1-1.4-1.6c-0.3-0.3-0.5-0.5-0.7-0.7
		h36.7c0.9,0.3,1.6,0.9,2.2,1.7c1.1,1.4,1.9,3.6,2.4,6.6c0.2,1.1,0.3,2.2,0.3,3.3c0,0.2,0,0.3,0,0.5c0,0.8,0,1.6-0.1,2.3
		c-0.1,0.8-0.2,1.5-0.4,2.1c-0.1,0.6-0.4,1.1-0.6,1.6l-2.6-5.3c-0.7-1.4-1.6-2.7-2.7-3.9c-1.4-1.4-3-2.4-4.8-3.1
		c-1.2-0.4-2.4-0.7-3.6-0.8c-0.9-0.1-1.7-0.2-2.6-0.1c-0.5,0-1.1,0-1.6,0c-1,0-1.8,0.1-2.5,0.1c-0.3,0-0.6,0.1-0.8,0.1
		c-0.8,0.1-1.4,0.4-1.9,0.8c-0.1,0.1-0.2,0.2-0.3,0.3c-0.3,0.3-0.5,0.7-0.7,1.1c-0.4,1-0.6,2.4-0.6,4.3c0,2.7,0.1,4.5,0.2,5.5
		c0,0.4,0.1,0.8,0.2,1.2c0.2,0.5,0.4,1,0.7,1.4c0.4,0.5,0.9,0.8,1.4,1.1c0.9,0.4,2.1,0.7,3.6,0.8c0.5,0,0.9,0,1.4,0H126
		c-0.2,0.5-0.4,1-0.6,1.5c-0.4,0.9-0.9,1.7-1.3,2.2c-0.1,0.1-0.2,0.2-0.3,0.3c-1.1,1.1-2.5,1.8-4,2.1c-0.8,0.2-1.6,0.2-2.3,0.2
		c-0.8,0-1.6-0.1-2.4-0.2c-0.2,0-0.4-0.1-0.5-0.1c-0.7-0.2-1.4-0.3-2-0.4s-1.3-0.2-1.8-0.2c-0.3,0-0.5,0-0.8,0
		c-0.9,0-1.8,0.1-2.5,0.2c-0.3,0-0.5,0.1-0.8,0.2s-0.7,0.2-1,0.4c-0.4,0.2-0.8,0.5-1.1,0.8c-0.8,0.9-1.3,2.6-1.3,4.9v23.3
		c0,1.1,0,2.1,0,3.2c0.1,4.2,0.4,6.8,1,7.7c0.2,0.3,0.4,0.6,0.7,0.9c0.5,0.6,1.1,0.9,1.8,1.1c1,0.2,2.6,0.3,4.9,0.3
		c1.2,0,2.4-0.1,3.5-0.3c0.9-0.2,1.8-0.4,2.7-0.7c1.9-0.7,3.4-1.6,4.7-2.7c1.3-1.2,2.3-2.6,3.1-4.2c0.5-1.1,1-2.1,1.5-3.2
		c0.3-0.7,0.6-1.4,0.9-2.1c0.4,0.5,0.7,1.1,0.9,1.7c0.2,0.5,0.3,1.2,0.4,1.8s0.1,1.1,0.1,1.7c0,2.2-0.1,3.9-0.3,5.3
		c0,0.1,0,0.1,0,0.2c-0.1,0.7-0.2,1.5-0.4,2.2c-0.1,0.5-0.3,1-0.5,1.5s-0.4,1-0.7,1.5C126.4,74.1,125.3,74.8,124.1,74.8z"/>
	<path vector-effect="non-scaling-stroke" class="st0" d="M206,74.9h-17c0.1-0.6,0.2-1.2,0.3-1.8c0.2-1.1,0.3-2,0.3-2.8
		c0-0.1,0-0.2,0-0.3c0-0.3,0-0.6,0-0.9c0-0.8,0-1.4-0.1-1.9c0-0.4-0.1-0.8-0.1-1.2c0-0.3-0.1-0.5-0.1-0.8c-0.1-0.7-0.2-1.5-0.3-2.3
		c-0.1-0.4-0.1-0.8-0.1-1.2s-0.1-0.9-0.1-1.3c0-0.2,0-0.3,0-0.5c-0.7-7.8-3.4-14.2-8-19.2c-1.1-1.2-2.3-2.3-3.5-3.2
		c-0.9-0.7-2-1.3-3-1.8c-0.6-0.3-1.3-0.6-2-0.9c-1.5-0.6-2.7-0.9-3.8-0.9c-0.4,0-0.8,0-1.3,0c-0.8,0-1.4,0.1-2,0.2
		c-0.1,0-0.2,0-0.3,0.1c-1.8,5.5-2.7,11.2-2.7,17.1c0,1.4,0,2.8,0.1,4.1c0.1,2.5,0.3,4.6,0.5,6.3c0.1,0.5,0.2,1,0.3,1.4
		c0.7,3.3,1.8,6.5,3.1,9.6c0.3,0.7,0.6,1.5,1,2.2h-14.8c0.7-1.7,1.1-5.1,1.2-10.1c0-0.8,0-1.5,0-2.3c0-3.8,0.2-7.5,0.6-11.3
		c0.2-2.1,0.5-4.2,0.9-6.3c0.4-2.6,1-5.2,1.6-7.7c0.6-2.3,1.3-4.6,2.1-6.8c0.7-2,1.5-4,2.4-6c0.8-1.8,1.7-3.5,2.7-5.2
		c0.9-1.5,1.8-3,2.8-4.5c0.9-1.3,1.8-2.6,2.8-3.9c0.8-1,1.6-2,2.4-2.9c0.8-1,1.6-1.8,2.4-2.7c0.2-0.2,0.4-0.4,0.5-0.6
		c0.6-0.6,1.2-1.2,1.8-1.8c0.9-1,1.7-1.9,2.4-2.7h15.4c-0.8,0.9-1.3,1.9-1.6,3c-0.2,0.8-0.4,1.7-0.4,2.6c0,0.4,0,0.7,0,1.1
		c0,1,0.1,2.4,0.4,4.4c0.1,0.7,0.2,1.4,0.3,2l1.2,8.9c0.8,5.3,1.6,10.6,2.5,15.9C199.9,59,203.1,71.3,206,74.9z M181.1,18.6
		l-1.7-8.5l-2.8,3.3c-3.9,4.7-7.2,10-9.7,15.7c1.3-0.5,2.6-0.7,4-0.7c0.7,0,1.3,0,2,0.1c0.6,0,1.2,0.1,1.8,0.2
		c1.1,0.2,2.3,0.5,3.3,1c2.3,0.9,4.4,2.4,6,4.3c-0.3-1.5-0.6-2.9-0.8-4.4c-1-5.3-1.7-8.9-2-10.6C181.1,18.8,181.1,18.7,181.1,18.6z"
		/>
	<path vector-effect="non-scaling-stroke" class="st0" d="M247.3,45.2l-9.1-27.8c-0.1,4.3-0.2,8.6-0.2,12.8c0,0.6,0,1.3,0,1.9
		c0,3.6,0,7.2,0.1,10.8c0.1,3.9,0.1,7.7,0.3,11.6c0,0.9,0.1,1.9,0.1,2.8c0.2,5.8,0.3,9.4,0.4,10.6c0,0.1,0,0.1,0,0.2
		c0,0.5,0.1,0.9,0.2,1.4c0.1,0.4,0.1,0.8,0.2,1.2c0,0.1,0.1,0.2,0.1,0.4c0.3,1.5,0.9,2.8,1.8,4.1h-13.6c1-1.3,1.6-2.8,2-4.4
		c0.1-0.4,0.2-0.8,0.2-1.2c0.2-2,0.4-4,0.6-5.9c0.1-1.3,0.2-2.7,0.2-4c0.1-3,0.2-6.5,0.2-10.6c0-0.3,0-0.6,0-0.9
		c0-3.8,0-7.5-0.1-11.3c-0.1-3.4-0.2-6.8-0.3-10.2l-0.5-13.4c-0.2-4.9-1-8.5-2.4-10.5c-0.3-0.5-0.7-1-1.1-1.4
		c-0.3-0.3-0.6-0.6-0.9-0.8h19.1c0.8,3.6,1.7,7.2,2.7,10.8c0.6,2.3,1.3,4.6,2,6.9l8.9,28.4l13.4-46.2h19c-0.5,0.5-1,1-1.5,1.5
		c-0.8,0.9-1.3,1.8-1.6,2.8c-0.7,2.1-1.1,4.5-1.2,7.3c0,0.2,0,0.4,0,0.6l-0.3,8.6c-0.4,8.7-0.6,16.6-0.6,23.6c0,1.1,0,2.3,0,3.4
		c0,2.3,0,4.6,0.1,6.9c0.2,9.2,0.8,15.3,1.7,18.2c0.2,0.7,0.5,1.3,0.9,2h-15.4c0.9-1.7,1.4-3.6,1.5-5.6c0-0.5,0.1-1.1,0.1-1.6
		c0.1-1.2,0.1-2.7,0.2-4.3c0-0.8,0-1.6,0.1-2.3c0.1-2.7,0.2-5.4,0.3-8.1c0.2-7.1,0.3-12.6,0.3-16.6c0-0.2,0-0.4,0-0.6
		c0-2,0-4.1,0-6.1c0-5.7-0.1-10.1-0.2-13.3l-18,58.5L247.3,45.2z"/>
</g>
</svg>
